<svg xmlns="http://www.w3.org/2000/svg" version="1.1" xmlns:xlink="http://www.w3.org/1999/xlink" xmlns:svgjs="http://svgjs.dev/svgjs" width="2000" height="2250" viewBox="0 0 2000 2250"><g transform="matrix(1,0,0,1,0.00014687500004129106,0)"><svg viewBox="0 0 320 360" data-background-color="#000000" preserveAspectRatio="xMidYMid meet" height="2250" width="2000" xmlns="http://www.w3.org/2000/svg" xmlns:xlink="http://www.w3.org/1999/xlink"><g id="tight-bounds" transform="matrix(1,0,0,1,0.000023499999997511622,0)"><svg viewBox="0 0 320 360" height="360" width="320"><g><svg></svg></g><g><svg viewBox="0 0 320 360" height="360" width="320"><g><path transform="translate(-74.99272,-51.79039) scale(4.65793,4.65793)" d="M20.6 59.9l0.8 1-0.4-1.3c-0.1-0.6-0.8 0.1-0.4 0.3M21.5 59.3c0.3 0.5 0.6 1 0.6 1.5 0 0.7 0.6 1 1.1 1.2-0.7-0.8-1.1-3-1.7-2.7M59.9 16.9c1.7 0 3.3-0.2 5.1 0.2 4.4 1.1 8.1 3.3 10.6 6.4l7 11.2c0.3 2.8 0.9 5.9 0.8 9.3 0.7 0 0.6-1 1.4-1.2-0.8 2-1.2 4.5-1.4 7.4-0.5-1.6 0-4 0.1-5.3-0.7 1.1-1.1 0.3-1.1-0.2 0.1-0.8-0.3-0.7-0.6-1-1.1-1-1.8-2.1-2.6-3.8 0.5-1.3 0.6-3.2-1-4.2-0.5-0.3-1.1-0.8-1.4-1.6-0.4-1.1-1.1-2.4-0.9-4.1 0.1-0.5-1.5 1.1-2.4 0.4-3.9-2.7-7.8-5.8-12.5-8.4-2.5 0-4.3-0.9-5.2-2-0.8-1-0.2-2.3 1-2.4 0.7 0 1.5-0.2 2.1 0.2 0.1-0.4 0.5-0.9 1-0.9M50 14.6l0.2 0.1c1 0.2 1.5 1.6 2.6 1.1 0 0.7 0.1 1.4-0.1 1.9-0.3 0.8-1.2 0.8-1.9 0.8-6.7-0.4-10.6 2.4-14.7 4.8-1.1 0.7-2.3 1.2-3.2 2.1-4.3 4-9 7.7-10.1 15.1l-0.9 8.2c-0.1 0.9-1.1 1.8-0.9 2.9l0.7 4.9c-0.7-0.7-1.1 0.2-0.9 0.6 0.1 0.3 0.5 1.3 1.1 0.4 0.8 1.5 1.6 4.4 2.7 5.7 3.4 4 7.8 7.6 11.4 11.2 0.9-0.2 1.6-0.2 1.8-0.8 0.3 0.6-0.3 1.2-0.8 1.3 1.6 1 3.4 1.9 5.8 2.1 3.1 0.2 6 0.7 8.7 1.4 1.4-0.4 2.8-0.6 4.3-0.7 0.5 0 0.8-0.8 1.4-1l0.1-1c0.6 0.9 0.5-0.3 0.1-0.9 0.7 0.6 0.9 1.1 1.2 1.5 0-0.3 0.8-1.4 0.8-0.1l0.2-1.3c0.3-0.2 0.4 1.1 0.7 0.2 0.3-0.9 0.9-0.2 1.5-0.5-0.2 0.4-0.1 1.2 0.6 0.7l0.8-0.7c0.5 1.2 1.3 0.7 1.7 0.5 4.4-2.8 8.8-6.1 13-9.4l-0.1 1.3 0.5-1.6c0.5 0.5 0.9 0.1 1.1-0.2 0.6-1 1.4-2 2.7-2.9-1.6 4.3-3.5 7.7-5.9 10.5l-1 1.2c0 0.7-0.2 1.6-1 1.7-0.4 0.1-1.2-0.2-1.8 0.4-0.3 0.4 0.7 1.2-0.1 0.6-0.7-0.5-1.4 0-2.2 0.2-0.6 0.2 0.4 0.8 0.6 1.2 0.2 0.4 0.4 0.8 0.3 1.3l-1.1-1.2c-1.3 0.7-2.1 2-3.2 3-0.5 0.4-0.3 1.1-0.3 1.7-0.7 0-1.5-0.2-1.9 0.2-0.3 0.4-0.2 1-0.2 1.6-1-0.1-1.1-1.6-2-1.3-0.9 0.2-1.9 0.3-2.7 0.8 0.6 1.2-1 0.5-0.8 0.7-1.5-0.9-2.8-1.6-4.4-1-3.4-1.1-7.6-0.6-10.7-0.2 0-0.5 0.1-1-0.1-1.1-0.2 0.5-0.8 0.3-0.7 0.3-1.9-1.3-3.8-2.1-5.8-3.2-1.8 0.2-3.5-0.7-4-1.2-1.4-1.3-3-0.6-4.3-0.9-2.8-0.7-3.8-3.6-4.1-5.6-0.2-1-1-1.4-1.3-1.3-1.3-4.2-3.3-8-4.9-11.9-0.4-1-0.3-2-0.3-3.1 0.5 0.2 1 0.1 0.9-0.6-0.5-3.3-1.7-5.8-3-8.2 0.7-3.4 0.8-7.4 2.4-10.4 1.4-2.7 4-4.1 5.8-6.4 0.6-0.8 0.6-1.9 1.2-2.6 2-2 4-4.1 6.2-5.9 1-0.8 2.2 0 3.7-0.3 0.5-1.8 2.5-3.4 4.4-2.9 0.8 0.2 2.4-1.9 2.9-2.1 0.8-0.3 0.4 0.8 0.4 1.5 1.9-1.5 4.5-2.3 6.9-3.2" fill="#000000" fill-rule="nonzero" stroke="none" stroke-width="1" stroke-linecap="butt" stroke-linejoin="miter" stroke-miterlimit="10" stroke-dasharray="" stroke-dashoffset="0" font-family="none" font-weight="none" font-size="none" text-anchor="none" style="mix-blend-mode: normal" data-fill-palette-color="tertiary"></path></g><g transform="matrix(1,0,0,1,64,111.03845721763923)"><svg viewBox="0 0 192 137.92308556472153" height="137.92308556472153" width="192"><g><svg viewBox="0 0 192 137.92308556472153" height="137.92308556472153" width="192"><g transform="matrix(1,0,0,1,0,101.01449329432558)"><svg viewBox="0 0 192 36.90859227039597" height="36.90859227039597" width="192"><g id="textblocktransform"><svg viewBox="0 0 192 36.90859227039597" height="36.90859227039597" width="192" id="textblock"><g><svg viewBox="0 0 192 21.110436155995625" height="21.110436155995625" width="192"><g transform="matrix(1,0,0,1,0,0)"><svg width="192" viewBox="3.85 -36.15 411.5 45.25" height="21.110436155995625" data-palette-color="#eee2e2"><path d="M6.95 0L3.85-34.3 8.3-34.3 10.25-10.6Q10.4-8.7 10.45-4.5L10.45-4.5 10.65-4.5Q11.5-7.75 12.35-10.6L12.35-10.6 19.55-34.3 25.9-34.3 26.75-10.6Q26.8-9.15 26.8-4.5L26.8-4.5 27-4.5Q28.15-8.45 28.9-10.6L28.9-10.6 37.45-34.3 41.55-34.3 28.75 0 23.05 0 22.3-23.15 22.05-30.15 21.8-30.15Q20.7-25.45 20.05-23.25L20.05-23.25 12.65 0 6.95 0ZM39.8 0L44.85-36.15 48.95-36.15 47.15-23.25Q48.1-24.75 49.7-25.83 51.3-26.9 53.65-26.9L53.65-26.9Q56.65-26.9 58-25.23 59.35-23.55 59.35-21L59.35-21Q59.35-19.5 56.55 0L56.55 0 52.45 0Q55.15-18.55 55.15-20.05L55.15-20.05Q55.15-23.25 52.15-23.25L52.15-23.25Q49.7-23.25 48.07-20.93 46.45-18.6 45.9-14.7L45.9-14.7 43.85 0 39.8 0ZM63.4 0L67.05-26.3 71.15-26.3 67.45 0 63.4 0ZM67.65-31.4L68.34-36.15 72.59-36.15 71.9-31.4 67.65-31.4ZM78.64 0.5Q76.49 0.5 75.54-0.68 74.59-1.85 74.59-3.75L74.59-3.75Q74.59-5 77.19-22.65L77.19-22.65 74.94-22.65 75.44-26.3 77.69-26.3 79.49-33.6 82.84-33.6 81.79-26.3 85.34-26.3 84.84-22.65 81.29-22.65Q78.79-5.45 78.79-4.9L78.79-4.9Q78.79-3.05 80.64-3.05L80.64-3.05 82.09-3.05 81.69-0.2Q81.09 0.1 80.24 0.3 79.39 0.5 78.64 0.5L78.64 0.5ZM94.54 0.6Q90.39 0.6 88.22-1.78 86.04-4.15 86.04-8.95L86.04-8.95Q86.04-16.1 88.57-21.5 91.09-26.9 97.19-26.9L97.19-26.9Q105.29-26.9 105.29-17.45L105.29-17.45Q105.29-14.5 104.89-11.95L104.89-11.95 90.44-11.95Q90.29-10.4 90.29-9.3L90.29-9.3Q90.29-3.05 94.54-3.05L94.54-3.05Q96.69-3.05 98.22-4.75 99.74-6.45 100.09-8.9L100.09-8.9 104.24-8.9Q103.59-4.8 101.07-2.1 98.54 0.6 94.54 0.6L94.54 0.6ZM90.94-15.6L100.99-15.6Q101.04-16.25 101.04-17.4L101.04-17.4Q101.04-23.25 97.19-23.25L97.19-23.25Q94.69-23.25 93.17-21.08 91.64-18.9 90.94-15.6L90.94-15.6ZM108.79 0L113.64-34.3 118.04-34.3 113.79-4 127.79-4 127.19 0 108.79 0ZM139.84 0.6Q131.54 0.6 131.54-8.75L131.54-8.75Q131.54-13 132.51-17.1 133.49-21.2 135.99-24.05 138.49-26.9 142.69-26.9L142.69-26.9Q150.99-26.9 150.99-17.45L150.99-17.45Q150.99-13.2 150.01-9.13 149.04-5.05 146.54-2.23 144.04 0.6 139.84 0.6L139.84 0.6ZM139.84-3.05Q142.59-3.05 144.14-5.65 145.69-8.25 146.21-11.53 146.74-14.8 146.74-17.4L146.74-17.4Q146.74-23.25 142.69-23.25L142.69-23.25Q139.94-23.25 138.41-20.73 136.89-18.2 136.34-15.03 135.79-11.85 135.79-9.3L135.79-9.3Q135.79-6.1 136.76-4.58 137.74-3.05 139.84-3.05L139.84-3.05ZM158.43 0.5Q156.28 0.5 155.33-0.68 154.38-1.85 154.38-3.75L154.38-3.75Q154.38-5 156.98-22.65L156.98-22.65 154.73-22.65 155.23-26.3 157.48-26.3 159.28-33.6 162.63-33.6 161.58-26.3 165.13-26.3 164.63-22.65 161.08-22.65Q158.58-5.45 158.58-4.9L158.58-4.9Q158.58-3.05 160.43-3.05L160.43-3.05 161.88-3.05 161.48-0.2Q160.88 0.1 160.03 0.3 159.18 0.5 158.43 0.5L158.43 0.5ZM171.88 0.6Q168.88 0.6 167.53-1.07 166.18-2.75 166.18-5.3L166.18-5.3Q166.18-6.8 168.98-26.3L168.98-26.3 173.08-26.3Q170.38-7.75 170.38-6.25L170.38-6.25Q170.38-3.05 173.38-3.05L173.38-3.05Q175.83-3.05 177.46-5.38 179.08-7.7 179.63-11.6L179.63-11.6 181.68-26.3 185.78-26.3 182.08 0 178.88 0 178.88-3.85Q178.03-2.2 176.33-0.8 174.63 0.6 171.88 0.6L171.88 0.6ZM196.18 0.6Q193.88 0.6 192-0.4 190.13-1.4 189.03-3.25 187.93-5.1 187.93-7.5L187.93-7.5Q187.93-8.55 188.03-9.1L188.03-9.1 192.28-9.1Q192.13-8.3 192.13-7.5L192.13-7.5Q192.13-5.3 193.38-4.15 194.63-3 196.58-3L196.58-3Q198.28-3 199.33-4.08 200.38-5.15 200.38-6.75L200.38-6.75Q200.38-8.6 199.28-9.68 198.18-10.75 195.93-12.1L195.93-12.1Q194.13-13.15 193.03-14 191.93-14.85 191.15-16.2 190.38-17.55 190.38-19.5L190.38-19.5Q190.38-22.75 192.5-24.83 194.63-26.9 198.48-26.9L198.48-26.9Q202.23-26.9 204.1-24.53 205.98-22.15 205.98-18.65L205.98-18.65 201.73-18.65Q201.73-21.15 200.68-22.23 199.63-23.3 198.03-23.3L198.03-23.3Q196.78-23.3 195.7-22.43 194.63-21.55 194.63-20.1L194.63-20.1Q194.63-18.25 195.7-17.25 196.78-16.25 198.98-15.05L198.98-15.05Q200.78-14.05 201.9-13.23 203.03-12.4 203.83-10.98 204.63-9.55 204.63-7.4L204.63-7.4Q204.63-3.65 202.35-1.53 200.08 0.6 196.18 0.6L196.18 0.6ZM217.13 0L219.13-14.2 210.88-34.3 215.68-34.3 221.93-18.4 222.13-18.4 232.83-34.3 237.43-34.3 223.53-14.2 221.53 0 217.13 0ZM240.07 0.6Q231.77 0.6 231.77-8.75L231.77-8.75Q231.77-13 232.75-17.1 233.72-21.2 236.22-24.05 238.72-26.9 242.92-26.9L242.92-26.9Q251.22-26.9 251.22-17.45L251.22-17.45Q251.22-13.2 250.25-9.13 249.27-5.05 246.77-2.23 244.27 0.6 240.07 0.6L240.07 0.6ZM240.07-3.05Q242.82-3.05 244.37-5.65 245.92-8.25 246.45-11.53 246.97-14.8 246.97-17.4L246.97-17.4Q246.97-23.25 242.92-23.25L242.92-23.25Q240.17-23.25 238.65-20.73 237.12-18.2 236.57-15.03 236.02-11.85 236.02-9.3L236.02-9.3Q236.02-6.1 237-4.58 237.97-3.05 240.07-3.05L240.07-3.05ZM261.17 9.1Q257.32 9.1 255.3 6.85 253.27 4.6 253.27 1.2L253.27 1.2 257.37 1.2Q257.37 5.5 261.32 5.5L261.32 5.5Q263.72 5.5 265.1 3.88 266.47 2.25 267.02-1.25L267.02-1.25 267.57-4.55Q266.22-2.4 264.77-1.4 263.32-0.4 261.47-0.4L261.47-0.4Q258.02-0.4 256.4-3.05 254.77-5.7 254.77-9.5L254.77-9.5Q254.77-15.2 256.22-19.13 257.67-23.05 259.97-24.98 262.27-26.9 264.87-26.9L264.87-26.9Q266.92-26.9 268.35-25.93 269.77-24.95 270.52-22.65L270.52-22.65 271.37-26.3 274.62-26.3 271.27-2.45Q270.42 3.6 267.95 6.35 265.47 9.1 261.17 9.1L261.17 9.1ZM262.77-4.05Q265.02-4.05 266.45-6.48 267.87-8.9 268.5-12.08 269.12-15.25 269.12-17.6L269.12-17.6Q269.02-23.25 265.42-23.25L265.42-23.25Q262.92-23.25 261.5-20.78 260.07-18.3 259.52-15.08 258.97-11.85 258.97-9.1L258.97-9.1Q258.97-4.05 262.77-4.05L262.77-4.05ZM284.02 0.6Q280.97 0.6 279.17-1.85 277.37-4.3 277.37-9.15L277.37-9.15Q277.37-14.9 278.84-18.9 280.32-22.9 282.64-24.9 284.97-26.9 287.52-26.9L287.52-26.9Q291.67-26.9 292.97-22.65L292.97-22.65 293.87-26.3 297.12-26.3Q294.07-5 294.07-4.45L294.07-4.45Q294.07-3.75 294.39-3.4 294.72-3.05 295.27-3.05L295.27-3.05 296.87-3.05 296.47-0.2Q295.32 0.6 293.67 0.6L293.67 0.6Q292.02 0.6 291.07-0.4 290.12-1.4 290.07-3.55L290.07-3.55Q288.62-1.4 287.19-0.4 285.77 0.6 284.02 0.6L284.02 0.6ZM285.27-3.05Q287.42-3.05 288.84-5.65 290.27-8.25 290.92-11.68 291.57-15.1 291.57-17.6L291.57-17.6Q291.57-23.25 288.12-23.25L288.12-23.25Q285.67-23.25 284.19-20.73 282.72-18.2 282.14-14.85 281.57-11.5 281.57-8.75L281.57-8.75Q281.57-3.05 285.27-3.05L285.27-3.05ZM310.97 0.6Q305.97 0.6 303.07-2.02 300.17-4.65 300.17-9.4L300.17-9.4Q300.17-10.9 300.32-11.7L300.32-11.7 304.87-11.7Q304.62-10.3 304.62-9.35L304.62-9.35Q304.62-6.35 306.37-4.9 308.12-3.45 311.32-3.45L311.32-3.45Q313.97-3.45 316.19-4.85 318.42-6.25 318.42-9.5L318.42-9.5Q318.42-11.15 317.54-12.3 316.67-13.45 315.37-14.2 314.07-14.95 311.82-16L311.82-16Q309.17-17.15 307.52-18.18 305.87-19.2 304.72-20.9 303.57-22.6 303.57-25.1L303.57-25.1Q303.57-29.8 306.37-32.35 309.17-34.9 314.22-34.9L314.22-34.9Q319.82-34.9 322.32-32.02 324.82-29.15 324.82-24.25L324.82-24.25 320.27-24.25Q320.27-30.85 313.97-30.85L313.97-30.85Q311.87-30.85 309.99-29.78 308.12-28.7 308.12-25.6L308.12-25.6Q308.12-24.1 308.94-23.05 309.77-22 311.02-21.3 312.27-20.6 314.47-19.65L314.47-19.65Q317.17-18.5 318.89-17.48 320.62-16.45 321.82-14.65 323.02-12.85 323.02-10.15L323.02-10.15Q323.02-7.5 321.94-5.08 320.87-2.65 318.17-1.03 315.47 0.6 310.97 0.6L310.97 0.6ZM331.61 0.5Q329.46 0.5 328.51-0.68 327.56-1.85 327.56-3.75L327.56-3.75Q327.56-5 330.16-22.65L330.16-22.65 327.91-22.65 328.41-26.3 330.66-26.3 332.46-33.6 335.81-33.6 334.76-26.3 338.31-26.3 337.81-22.65 334.26-22.65Q331.76-5.45 331.76-4.9L331.76-4.9Q331.76-3.05 333.61-3.05L333.61-3.05 335.06-3.05 334.66-0.2Q334.06 0.1 333.21 0.3 332.36 0.5 331.61 0.5L331.61 0.5ZM345.06 0.6Q342.06 0.6 340.71-1.07 339.36-2.75 339.36-5.3L339.36-5.3Q339.36-6.8 342.16-26.3L342.16-26.3 346.26-26.3Q343.56-7.75 343.56-6.25L343.56-6.25Q343.56-3.05 346.56-3.05L346.56-3.05Q349.01-3.05 350.64-5.38 352.26-7.7 352.81-11.6L352.81-11.6 354.86-26.3 358.96-26.3 355.26 0 352.06 0 352.06-3.85Q351.21-2.2 349.51-0.8 347.81 0.6 345.06 0.6L345.06 0.6ZM368.41 0.6Q365.36 0.6 363.56-1.85 361.76-4.3 361.76-9.15L361.76-9.15Q361.76-14.9 363.23-18.9 364.71-22.9 367.03-24.9 369.36-26.9 371.91-26.9L371.91-26.9Q375.56-26.9 377.16-23.4L377.16-23.4 378.96-36.15 383.06-36.15 378.01 0 374.76 0 374.76-3.55Q372.21 0.6 368.41 0.6L368.41 0.6ZM369.66-3.05Q372.01-3.05 373.48-5.65 374.96-8.25 375.56-11.63 376.16-15 376.16-17.6L376.16-17.6Q376.16-23.25 372.51-23.25L372.51-23.25Q370.06-23.25 368.58-20.73 367.11-18.2 366.53-14.85 365.96-11.5 365.96-8.75L365.96-8.75Q365.96-3.05 369.66-3.05L369.66-3.05ZM384.76 0L388.41-26.3 392.51-26.3 388.81 0 384.76 0ZM389.01-31.4L389.71-36.15 393.96-36.15 393.26-31.4 389.01-31.4ZM404.2 0.6Q395.9 0.6 395.9-8.75L395.9-8.75Q395.9-13 396.88-17.1 397.85-21.2 400.35-24.05 402.85-26.9 407.05-26.9L407.05-26.9Q415.35-26.9 415.35-17.45L415.35-17.45Q415.35-13.2 414.38-9.13 413.4-5.05 410.9-2.23 408.4 0.6 404.2 0.6L404.2 0.6ZM404.2-3.05Q406.95-3.05 408.5-5.65 410.05-8.25 410.58-11.53 411.1-14.8 411.1-17.4L411.1-17.4Q411.1-23.25 407.05-23.25L407.05-23.25Q404.3-23.25 402.78-20.73 401.25-18.2 400.7-15.03 400.15-11.85 400.15-9.3L400.15-9.3Q400.15-6.1 401.13-4.58 402.1-3.05 404.2-3.05L404.2-3.05Z" opacity="1" transform="matrix(1,0,0,1,0,0)" fill="#000000" class="wordmark-text-0" data-fill-palette-color="primary" id="text-0"></path></svg></g></svg></g><g transform="matrix(1,0,0,1,0,26.09410348195845)"><svg viewBox="0 0 192 10.81448878843752" height="10.81448878843752" width="192"><g transform="matrix(1,0,0,1,0,0)"><svg width="192" viewBox="2.95 -36.85 840.5799999999999 47.35" height="10.81448878843752" data-palette-color="#ff908b"><path d="M11.1-27.05L8.75-19.9 5.3-19.9 2.95-27.05 2.95-34.4 11.1-34.4 11.1-27.05ZM22.05-27.05L19.65-19.9 16.25-19.9 13.9-27.05 13.9-34.4 22.05-34.4 22.05-27.05ZM28.7 0L28.7-34.4 56.5-34.4 56.5-26.15 39.75-26.15 39.75-20.25 54.15-20.25 54.15-12.35 39.75-12.35 39.75 0 28.7 0ZM72.05 0L62.09 0 62.09-36.25 72.05-36.25 72.05 0ZM92.04-27Q98.99-27 102.97-23.48 106.94-19.95 106.94-13.2L106.94-13.2Q106.94-6.45 102.97-2.93 98.99 0.6 92.04 0.6L92.04 0.6Q85.09 0.6 81.14-2.9 77.19-6.4 77.19-13.2L77.19-13.2Q77.19-20 81.14-23.5 85.09-27 92.04-27L92.04-27ZM92.04-20.25Q87.14-20.25 87.14-14.6L87.14-14.6 87.14-11.75Q87.14-6.15 92.04-6.15L92.04-6.15Q96.99-6.15 96.99-11.75L96.99-11.75 96.99-14.6Q96.99-20.25 92.04-20.25L92.04-20.25ZM145.34 0L135.64 0 131.54-14.7 131.34-14.7 127.19 0 117.49 0 107.84-26.4 118.54-26.4 122.54-10.8 122.89-10.8 127.04-26.4 136.94-26.4 140.94-10.8 141.29-10.8 145.34-26.4 155.04-26.4 145.34 0ZM206.44-25.6L195.19-25.6 195.19 0 184.14 0 184.14-25.6 172.84-25.6 172.84-34.4 206.44-34.4 206.44-25.6ZM222.08-23.65Q223.68-25.25 225.83-26.13 227.98-27 230.33-27L230.33-27Q234.93-27 237.23-24.45 239.53-21.9 239.53-17.1L239.53-17.1 239.53 0 229.58 0 229.58-15.9Q229.58-17.6 228.71-18.63 227.83-19.65 226.23-19.65L226.23-19.65Q224.38-19.65 223.23-18.45 222.08-17.25 222.08-15.5L222.08-15.5 222.08 0 212.13 0 212.13-36.25 222.08-36.25 222.08-23.65ZM261.53-27.05Q262.68-27.05 263.58-26.78 264.48-26.5 264.48-26.45L264.48-26.45 264.48-18.1 261.28-18.1Q258.18-18.1 256.81-16.5 255.43-14.9 255.43-11.75L255.43-11.75 255.43 0 245.48 0 245.48-26.4 253.63-26.4 254.28-22.4Q255.18-24.7 257.13-25.88 259.08-27.05 261.53-27.05L261.53-27.05ZM282.13-27Q289.08-27 293.05-23.48 297.03-19.95 297.03-13.2L297.03-13.2Q297.03-6.45 293.05-2.93 289.08 0.6 282.13 0.6L282.13 0.6Q275.18 0.6 271.23-2.9 267.28-6.4 267.28-13.2L267.28-13.2Q267.28-20 271.23-23.5 275.18-27 282.13-27L282.13-27ZM282.13-20.25Q277.23-20.25 277.23-14.6L277.23-14.6 277.23-11.75Q277.23-6.15 282.13-6.15L282.13-6.15Q287.08-6.15 287.08-11.75L287.08-11.75 287.08-14.6Q287.08-20.25 282.13-20.25L282.13-20.25ZM329.13 0L320.98 0 320.33-4Q318.78-1.85 316.25-0.63 313.73 0.6 310.93 0.6L310.93 0.6Q306.33 0.6 304.03-1.95 301.73-4.5 301.73-9.3L301.73-9.3 301.73-26.4 311.68-26.4 311.68-10.5Q311.68-8.8 312.55-7.78 313.43-6.75 315.03-6.75L315.03-6.75Q316.88-6.75 318.03-7.95 319.18-9.15 319.18-10.9L319.18-10.9 319.18-26.4 329.13-26.4 329.13 0ZM364.87-31.35Q364.87-28.3 363.35-26.65 361.82-25 358.77-24.2L358.77-24.2Q360.22-23.1 361.05-21.63 361.87-20.15 361.87-18.5L361.87-18.5Q361.87-14.3 358.7-12.15 355.52-10 350.77-10L350.77-10 346.97-10Q343.82-10 343.82-8.55L343.82-8.55Q343.82-7.85 344.52-7.43 345.22-7 346.97-7L346.97-7 355.97-7Q360.37-7 362.62-4.7 364.87-2.4 364.87 1.45L364.87 1.45Q364.87 4.3 363.37 6.35 361.87 8.4 359.32 9.45 356.77 10.5 353.77 10.5L353.77 10.5 339.07 10.5Q337.27 10.5 335.75 9.65 334.22 8.8 333.32 7.33 332.42 5.85 332.42 4.05L332.42 4.05Q332.42 2.1 333.62 0.53 334.82-1.05 336.62-1.85L336.62-1.85Q335.42-2.7 334.72-3.9 334.02-5.1 334.02-6.5L334.02-6.5Q334.02-8.45 335.47-10.03 336.92-11.6 339.07-12.15L339.07-12.15Q337.12-13.4 335.97-15.03 334.82-16.65 334.82-18.45L334.82-18.45Q334.82-23.05 338.55-25.03 342.27-27 348.42-27L348.42-27Q351.12-27 352.77-26.7L352.77-26.7Q355.22-28.25 355.95-29.53 356.67-30.8 356.67-31.35L356.67-31.35 364.87-31.35ZM348.32-21.8Q346.67-21.8 345.62-20.95 344.57-20.1 344.57-18.5L344.57-18.5Q344.57-16.85 345.55-16.03 346.52-15.2 348.32-15.2L348.32-15.2Q350.12-15.2 351.15-16.03 352.17-16.85 352.17-18.5L352.17-18.5Q352.17-20.15 351.15-20.98 350.12-21.8 348.32-21.8L348.32-21.8ZM344.47 0Q343.32 0 342.6 0.63 341.87 1.25 341.87 2.4L341.87 2.4Q341.87 3.55 342.62 4.25 343.37 4.95 344.47 4.95L344.47 4.95 352.27 4.95Q353.37 4.95 354.15 4.28 354.92 3.6 354.92 2.45L354.92 2.45Q354.92 1.3 354.17 0.65 353.42 0 352.27 0L352.27 0 344.47 0ZM378.47-23.65Q380.07-25.25 382.22-26.13 384.37-27 386.72-27L386.72-27Q391.32-27 393.62-24.45 395.92-21.9 395.92-17.1L395.92-17.1 395.92 0 385.97 0 385.97-15.9Q385.97-17.6 385.1-18.63 384.22-19.65 382.62-19.65L382.62-19.65Q380.77-19.65 379.62-18.45 378.47-17.25 378.47-15.5L378.47-15.5 378.47 0 368.52 0 368.52-36.25 378.47-36.25 378.47-23.65ZM419.22 0L419.22-34.4 430.27-34.4 430.27-8.8 447.92-8.8 447.92 0 419.22 0ZM462.16-29.5L452.21-29.5 452.21-36.25 462.16-36.25 462.16-29.5ZM462.16 0L452.21 0 452.21-26.4 462.16-26.4 462.16 0ZM479.26-36.85Q480.36-36.85 482.01-36.58 483.66-36.3 484.66-35.95L484.66-35.95 484.66-30.1 482.36-30.1Q480.76-30.1 480.16-29.5 479.56-28.9 479.56-27.45L479.56-27.45 479.56-26.4 484.66-26.4 484.66-19.65 479.56-19.65 479.56 0 469.61 0 469.61-19.65 465.91-19.65 465.91-26.4 469.61-26.4 469.61-27.5Q469.61-32.6 472.11-34.73 474.61-36.85 479.26-36.85L479.26-36.85ZM500.76-27Q508.01-27 511.83-23.6 515.66-20.2 515.66-13.2L515.66-13.2 515.66-11.5 495.86-11.5Q495.86-8.65 497.13-7.2 498.41-5.75 501.16-5.75L501.16-5.75Q503.66-5.75 504.83-6.8 506.01-7.85 506.01-9.6L506.01-9.6 515.66-9.6Q515.66-4.8 512.01-2.1 508.36 0.6 501.36 0.6L501.36 0.6Q494.01 0.6 489.96-2.83 485.91-6.25 485.91-13.2L485.91-13.2Q485.91-20 489.86-23.5 493.81-27 500.76-27L500.76-27ZM501.16-20.65Q496.46-20.65 495.91-16.2L495.91-16.2 505.61-16.2Q505.61-18.25 504.43-19.45 503.26-20.65 501.16-20.65L501.16-20.65ZM571.6 0L561.9 0 557.8-14.7 557.6-14.7 553.45 0 543.75 0 534.1-26.4 544.8-26.4 548.8-10.8 549.15-10.8 553.3-26.4 563.2-26.4 567.2-10.8 567.55-10.8 571.6-26.4 581.3-26.4 571.6 0ZM594.6-29.5L584.65-29.5 584.65-36.25 594.6-36.25 594.6-29.5ZM594.6 0L584.65 0 584.65-26.4 594.6-26.4 594.6 0ZM612.95-26.4L618.55-26.4 618.55-19.65 612.95-19.65 612.95-9.6Q612.95-7.8 613.55-6.98 614.15-6.15 615.75-6.15L615.75-6.15 618.55-6.15 618.55-0.3Q617.35 0.1 615.45 0.35 613.55 0.6 612.15 0.6L612.15 0.6Q607.75 0.6 605.37-1 603-2.6 603-6.45L603-6.45 603-19.65 599.3-19.65 599.3-26.4 603.4-26.4 605.55-34.4 612.95-34.4 612.95-26.4ZM633.09-23.65Q634.69-25.25 636.84-26.13 638.99-27 641.34-27L641.34-27Q645.94-27 648.24-24.45 650.54-21.9 650.54-17.1L650.54-17.1 650.54 0 640.59 0 640.59-15.9Q640.59-17.6 639.72-18.63 638.84-19.65 637.24-19.65L637.24-19.65Q635.39-19.65 634.24-18.45 633.09-17.25 633.09-15.5L633.09-15.5 633.09 0 623.14 0 623.14-36.25 633.09-36.25 633.09-23.65ZM695.19-13.35L695.19 0 684.14 0 684.14-13.35 670.49-34.4 683.19-34.4 689.79-22.95 689.99-22.95 696.59-34.4 708.64-34.4 695.19-13.35ZM721.44-27Q728.39-27 732.36-23.48 736.34-19.95 736.34-13.2L736.34-13.2Q736.34-6.45 732.36-2.93 728.39 0.6 721.44 0.6L721.44 0.6Q714.49 0.6 710.54-2.9 706.59-6.4 706.59-13.2L706.59-13.2Q706.59-20 710.54-23.5 714.49-27 721.44-27L721.44-27ZM721.44-20.25Q716.54-20.25 716.54-14.6L716.54-14.6 716.54-11.75Q716.54-6.15 721.44-6.15L721.44-6.15Q726.39-6.15 726.39-11.75L726.39-11.75 726.39-14.6Q726.39-20.25 721.44-20.25L721.44-20.25ZM770.83-31.35Q770.83-28.3 769.31-26.65 767.78-25 764.73-24.2L764.73-24.2Q766.18-23.1 767.01-21.63 767.83-20.15 767.83-18.5L767.83-18.5Q767.83-14.3 764.66-12.15 761.48-10 756.73-10L756.73-10 752.93-10Q749.78-10 749.78-8.55L749.78-8.55Q749.78-7.85 750.48-7.43 751.18-7 752.93-7L752.93-7 761.93-7Q766.33-7 768.58-4.7 770.83-2.4 770.83 1.45L770.83 1.45Q770.83 4.3 769.33 6.35 767.83 8.4 765.28 9.45 762.73 10.5 759.73 10.5L759.73 10.5 745.03 10.5Q743.23 10.5 741.71 9.65 740.18 8.8 739.28 7.33 738.38 5.85 738.38 4.05L738.38 4.05Q738.38 2.1 739.58 0.53 740.78-1.05 742.58-1.85L742.58-1.85Q741.38-2.7 740.68-3.9 739.98-5.1 739.98-6.5L739.98-6.5Q739.98-8.45 741.43-10.03 742.88-11.6 745.03-12.15L745.03-12.15Q743.08-13.4 741.93-15.03 740.78-16.65 740.78-18.45L740.78-18.45Q740.78-23.05 744.51-25.03 748.23-27 754.38-27L754.38-27Q757.08-27 758.73-26.7L758.73-26.7Q761.18-28.25 761.91-29.53 762.63-30.8 762.63-31.35L762.63-31.35 770.83-31.35ZM754.28-21.8Q752.63-21.8 751.58-20.95 750.53-20.1 750.53-18.5L750.53-18.5Q750.53-16.85 751.51-16.03 752.48-15.2 754.28-15.2L754.28-15.2Q756.08-15.2 757.11-16.03 758.13-16.85 758.13-18.5L758.13-18.5Q758.13-20.15 757.11-20.98 756.08-21.8 754.28-21.8L754.28-21.8ZM750.43 0Q749.28 0 748.56 0.63 747.83 1.25 747.83 2.4L747.83 2.4Q747.83 3.55 748.58 4.25 749.33 4.95 750.43 4.95L750.43 4.95 758.23 4.95Q759.33 4.95 760.11 4.28 760.88 3.6 760.88 2.45L760.88 2.45Q760.88 1.3 760.13 0.65 759.38 0 758.23 0L758.23 0 750.43 0ZM787.53-27Q793.58-27 797.38-24.98 801.18-22.95 801.18-18.4L801.18-18.4 801.18-8.1Q801.18-7.25 801.58-6.7 801.98-6.15 802.78-6.15L802.78-6.15 804.58-6.15 804.58-0.4Q804.43-0.3 803.81-0.08 803.18 0.15 802.03 0.38 800.88 0.6 799.38 0.6L799.38 0.6Q796.48 0.6 794.61-0.28 792.73-1.15 792.03-2.7L792.03-2.7Q790.13-1.2 787.78-0.3 785.43 0.6 782.28 0.6L782.28 0.6Q772.98 0.6 772.98-6.8L772.98-6.8Q772.98-10.65 775.06-12.68 777.13-14.7 781.03-15.45 784.93-16.2 791.23-16.2L791.23-16.2 791.23-17.5Q791.23-19.05 790.16-19.85 789.08-20.65 787.38-20.65L787.38-20.65Q785.83-20.65 784.71-20.1 783.58-19.55 783.58-18.35L783.58-18.35 783.58-18.15 773.78-18.15Q773.73-18.4 773.73-18.85L773.73-18.85Q773.73-22.6 777.31-24.8 780.88-27 787.53-27L787.53-27ZM791.23-11.5Q786.98-11.5 784.96-10.58 782.93-9.65 782.93-8.1L782.93-8.1Q782.93-5.6 786.33-5.6L786.33-5.6Q788.28-5.6 789.76-6.65 791.23-7.7 791.23-9.25L791.23-9.25 791.23-11.5ZM818.48 0L807.88 0 807.88-9.95 818.48-9.95 818.48 0ZM832.58-27.05L830.23-19.9 826.78-19.9 824.43-27.05 824.43-34.4 832.58-34.4 832.58-27.05ZM843.53-27.05L841.13-19.9 837.73-19.9 835.38-27.05 835.38-34.4 843.53-34.4 843.53-27.05Z" opacity="1" transform="matrix(1,0,0,1,0,0)" fill="#000000" class="slogan-text-1" data-fill-palette-color="secondary" id="text-1"></path></svg></g></svg></g></svg></g></svg></g><g transform="matrix(1,0,0,1,50.47642067880003,0)"><svg viewBox="0 0 91.04715864239994 91.04715864239994" height="91.04715864239994" width="91.04715864239994"><g><svg></svg></g><g id="icon-0"><svg viewBox="0 0 91.04715864239994 91.04715864239994" height="91.04715864239994" width="91.04715864239994"><g><path d="M0 45.524c0-25.142 20.382-45.524 45.524-45.524 25.142 0 45.524 20.382 45.523 45.524 0 25.142-20.382 45.524-45.523 45.523-25.142 0-45.524-20.382-45.524-45.523zM45.524 89.143c24.091 0 43.62-19.529 43.619-43.619 0-24.091-19.529-43.62-43.619-43.62-24.091 0-43.62 19.529-43.62 43.62 0 24.091 19.529 43.62 43.62 43.619z" data-fill-palette-color="accent" fill="#000000" stroke="transparent"></path></g><g transform="matrix(1,0,0,1,18.09597948302628,30.332569613454375)"><svg viewBox="0 0 54.855199676347375 30.38201941549119" height="30.38201941549119" width="54.855199676347375"><g><svg xmlns="http://www.w3.org/2000/svg" xmlns:xlink="http://www.w3.org/1999/xlink" version="1.1" x="0" y="0" viewBox="1.0720000000000027 22.901 97.856 54.198378813015964" enable-background="new 0 0 100 100" xml:space="preserve" height="30.38201941549119" width="54.855199676347375" class="icon-cg-0" data-fill-palette-color="accent" id="cg-0"><g fill="#dad8d8" data-fill-palette-color="accent"><g fill="#dad8d8" data-fill-palette-color="accent"><path d="M23.702 61.297c-1.438-1.412-2.75-2.909-3.936-4.468-7.164 0.122-13.735 2.287-18.694 5.934 4.583 6.779 12.729 12.054 22.627 13.766 9.032 1.562 17.678-0.168 24.132-4.164l-2.527-0.3C37.5 71.138 29.828 67.313 23.702 61.297z" fill="#000000" data-fill-palette-color="accent"></path><path d="M45.567 69.839c-4.812-6.156-7.518-14.323-7.518-23.042 0-0.567 0.016-1.131 0.039-1.692-7.034-6.54-15.71-9.828-23.594-9.6-0.089 8.184 3.61 17.155 10.776 24.193C31.261 65.58 38.556 69.007 45.567 69.839z" fill="#000000" data-fill-palette-color="accent"></path><path d="M80.232 56.829c-1.185 1.559-2.497 3.056-3.935 4.468-6.126 6.017-13.798 9.841-21.602 10.768l-2.527 0.3C58.624 76.36 67.27 78.09 76.3 76.528c9.899-1.712 18.044-6.986 22.628-13.766C93.968 59.116 87.398 56.951 80.232 56.829z" fill="#000000" data-fill-palette-color="accent"></path><path d="M61.95 46.796c0 8.719-2.706 16.886-7.519 23.042 7.012-0.832 14.307-4.259 20.296-10.142 7.167-7.038 10.866-16.009 10.777-24.193-7.885-0.228-16.559 3.06-23.594 9.6C61.934 45.666 61.95 46.229 61.95 46.796z" fill="#000000" data-fill-palette-color="accent"></path><path d="M50 22.901c-5.9 5.671-9.709 14.596-9.709 24.642 0 10.045 3.809 18.97 9.709 24.642 5.9-5.672 9.71-14.597 9.71-24.642C59.71 37.498 55.9 28.573 50 22.901z" fill="#000000" data-fill-palette-color="accent"></path><path d="M18.225 54.646c-2.085-3.157-3.659-6.525-4.665-9.978-3.384 0.064-6.626 0.644-9.574 1.714 1.094 3.428 2.932 6.77 5.412 9.817C12.201 55.346 15.171 54.815 18.225 54.646z" fill="#000000" data-fill-palette-color="accent"></path><path d="M91.231 56.2c2.481-3.048 4.32-6.39 5.413-9.817-2.947-1.071-6.19-1.65-9.575-1.714-1.005 3.453-2.579 6.821-4.663 9.978C85.459 54.815 88.429 55.346 91.231 56.2z" fill="#000000" data-fill-palette-color="accent"></path><path d="M41.59 31.027c-2.759-2.499-5.81-4.459-8.963-5.705-1.523 3.451-2.338 7.442-2.422 11.619 2.878 1.431 5.637 3.248 8.176 5.424C38.887 38.342 39.975 34.509 41.59 31.027z" fill="#000000" data-fill-palette-color="accent"></path><path d="M69.97 36.941c-0.084-4.177-0.897-8.168-2.423-11.619-3.152 1.246-6.202 3.207-8.962 5.705 1.615 3.482 2.703 7.314 3.209 11.338C64.333 40.189 67.092 38.372 69.97 36.941z" fill="#000000" data-fill-palette-color="accent"></path></g></g></svg></g></svg></g></svg></g></svg></g><g></g></svg></g></svg></g></svg></g><defs></defs></svg><rect width="320" height="360" fill="none" stroke="none" visibility="hidden"></rect></g></svg></g></svg>