<?xml version="1.0" encoding="utf-8"?>
<!-- Generator: Adobe Illustrator 27.5.0, SVG Export Plug-In . SVG Version: 6.00 Build 0)  -->
<svg version="1.1" xmlns="http://www.w3.org/2000/svg" xmlns:xlink="http://www.w3.org/1999/xlink" x="0px" y="0px"
	 viewBox="0 0 750 500" style="enable-background:new 0 0 750 500;" xml:space="preserve">
<g id="BACKGROUND">
	<rect style="fill:#FFFFFF;" width="750" height="500"/>
	<path style="fill:#FFFFFF;" d="M599.005,267.379"/>
</g>
<g id="OBJECTS">
	<g>
		<path style="fill:#B3C6F2;" d="M557.651,193.889c0,0,28.091-58.863-2.572-103.391c-23.923-34.741-45.383-8.537-17.165,27.187
			C557.038,141.894,558.622,156.433,557.651,193.889z"/>
		<path style="fill:#FFFFFF;" d="M533.02,79.548c7.015,7.193,12.449,15.81,16.918,24.801c2.238,4.507,4.111,9.19,5.738,13.951
			c1.613,4.766,2.984,9.621,3.994,14.554c0.982,4.936,1.765,9.918,2.152,14.936c0.279,2.502,0.307,5.021,0.464,7.531
			c0.002,2.515,0.113,5.031-0.029,7.543l-0.149,3.767c-0.065,1.255-0.193,2.506-0.287,3.758c-0.161,2.508-0.497,4.998-0.809,7.489
			c-0.293,2.494-0.821,4.953-1.219,7.429c-0.469,2.464-1.051,4.906-1.588,7.352c1.889-9.844,3.006-19.823,3.125-29.813
			c0.04-1.248,0.024-2.497-0.019-3.745l-0.067-3.744c-0.174-2.49-0.22-4.989-0.515-7.468c-0.418-4.974-1.235-9.906-2.238-14.79
			c-1.962-9.784-5.182-19.3-9.386-28.352c-2.104-4.527-4.502-8.92-7.163-13.151C539.28,87.369,536.372,83.276,533.02,79.548z"/>
		<g>
			<path style="fill:#92ACE0;" d="M557.383,193.81c0,0,5.549-37.503-29.687-64.815c-36.554-28.334-39.308,6.186-6.952,27.145
				S557.383,193.81,557.383,193.81z"/>
			<path style="fill:#FFFFFF;" d="M501.929,122.129c6.951,3.604,13.439,8.067,19.575,12.95c6.14,4.889,11.786,10.4,16.922,16.357
				c5.011,6.055,9.489,12.612,12.817,19.757c1.686,3.559,3.002,7.281,4.106,11.048c1.027,3.795,1.69,7.675,2.035,11.569
				c-1.249-7.723-3.676-15.187-7.185-22.111c-3.491-6.931-7.886-13.386-12.924-19.291c-4.976-5.963-10.574-11.399-16.505-16.438
				c-2.957-2.532-6.021-4.943-9.165-7.248C508.476,126.392,505.251,124.191,501.929,122.129z"/>
		</g>
		<g>
			<path style="fill:#B3C6F2;" d="M557.383,193.81c0,0,15.707-34.505,60.126-38.304c46.082-3.941,29.648,26.541-8.903,26.569
				C570.056,182.102,557.383,193.81,557.383,193.81z"/>
			<path style="fill:#FFFFFF;" d="M642.875,163.734c-3.909-0.072-7.813,0.025-11.704,0.282c-3.892,0.228-7.774,0.589-11.632,1.109
				c-7.717,1.01-15.369,2.534-22.786,4.84c-7.438,2.223-14.633,5.256-21.328,9.18c-6.707,3.908-12.798,8.858-18.041,14.665
				c2.404-3.083,5.068-5.98,7.991-8.609c2.972-2.564,6.099-4.975,9.447-7.048c6.674-4.193,13.995-7.267,21.491-9.63
				c7.547-2.213,15.282-3.774,23.092-4.546C627.209,163.209,635.081,162.985,642.875,163.734z"/>
		</g>
		<g>
			<path style="fill:#92ACE0;" d="M557.383,193.81c0,0,0.833-44.832,47.259-69.83c48.164-25.934,44.652,14.874,2.823,33.021
				S557.383,193.81,557.383,193.81z"/>
			<path style="fill:#FFFFFF;" d="M636.039,120.99c-4.288,1.73-8.486,3.658-12.6,5.746c-4.125,2.064-8.176,4.272-12.128,6.639
				c-7.917,4.707-15.512,9.963-22.493,15.948c-7.028,5.922-13.421,12.604-18.832,20.031c-5.43,7.415-9.696,15.673-12.602,24.456
				c1.19-4.467,2.732-8.855,4.688-13.07c2.032-4.17,4.3-8.246,6.968-12.058c5.285-7.665,11.777-14.434,18.803-20.508
				c7.137-5.952,14.793-11.275,22.891-15.8C618.827,127.858,627.249,123.893,636.039,120.99z"/>
		</g>
	</g>
	<g>
		<g>
			<path style="fill:#B3C6F2;" d="M196.085,202.151c0,0-12.185-26.767-46.643-29.714c-35.748-3.057-22.999,20.589,6.906,20.611
				C186.254,193.069,196.085,202.151,196.085,202.151z"/>
			<path style="fill:#FFFFFF;" d="M129.765,178.82c3.033-0.056,6.061,0.019,9.08,0.219c3.019,0.177,6.031,0.457,9.024,0.86
				c5.986,0.784,11.923,1.966,17.676,3.754c5.77,1.724,11.352,4.077,16.545,7.122c5.203,3.032,9.928,6.872,13.995,11.376
				c-1.865-2.391-3.931-4.639-6.199-6.678c-2.306-1.989-4.731-3.859-7.329-5.467c-5.177-3.252-10.856-5.637-16.671-7.47
				c-5.855-1.717-11.855-2.928-17.914-3.526C141.918,178.413,135.811,178.239,129.765,178.82z"/>
		</g>
		<g>
			<path style="fill:#B3C6F2;" d="M196.111,202.371c0,0,17.966-36.362-8.939-75.741c-27.912-40.853-42.054-6.611-15.993,25.354
				S196.111,202.371,196.111,202.371z"/>
			<path style="fill:#FFFFFF;" d="M163.192,111.177c2.705,3.191,5.265,6.491,7.685,9.89c2.445,3.379,4.772,6.841,6.951,10.39
				c4.384,7.079,8.298,14.451,11.406,22.157c3.19,7.667,5.545,15.683,6.823,23.886c1.299,8.202,1.318,16.598,0.053,24.872
				c0.928-4.078,1.527-8.246,1.728-12.447c0.114-4.198-0.004-8.42-0.552-12.597c-1.041-8.367-3.447-16.514-6.561-24.324
				c-3.272-7.752-7.212-15.217-11.857-22.212C174.226,123.804,169.085,117.129,163.192,111.177z"/>
		</g>
		<g>
			<path style="fill:#92ACE0;" d="M196.085,202.151c0,0-0.646-34.778-36.661-54.171c-37.363-20.118-34.639,11.539-2.19,25.616
				S196.085,202.151,196.085,202.151z"/>
			<path style="fill:#FFFFFF;" d="M135.068,145.661c3.326,1.342,6.583,2.838,9.774,4.458c3.2,1.601,6.342,3.314,9.408,5.15
				c6.142,3.651,12.034,7.729,17.449,12.371c5.452,4.594,10.412,9.777,14.609,15.539c4.213,5.752,7.521,12.158,9.776,18.972
				c-0.923-3.465-2.119-6.87-3.637-10.139c-1.576-3.235-3.335-6.397-5.405-9.354c-4.1-5.946-9.136-11.198-14.586-15.909
				c-5.537-4.617-11.475-8.747-17.758-12.256C148.42,150.989,141.886,147.913,135.068,145.661z"/>
		</g>
	</g>
	<g>
		<path style="fill:#D0DDF7;" d="M159.473,433.317c0,0-51.15-59.295-34.889-137.437c20.951-100.684,133.218-78.595,199.824-38.625
			s167.446,58.664,186.443-39.854c16.592-86.045,182.345,20.849,89.872,215.916H159.473z"/>
		<path style="fill:#FFFFFF;" d="M257.087,433.724c-14.2,0-34.995-28.939-27.004-60.063c12.023-46.829,80.149-54.438,116.868-6.219
			c33.057,43.411,76.21,72.619,107.422,28.419c28.157-39.874-10.652-81.624-55.603-75.958s82.441-65.291,141.034-3.611
			c44.489,46.833,19.183,117.433,19.183,117.433S271.287,433.724,257.087,433.724z"/>
	</g>
	<g>
		<circle style="fill:#F4A945;" cx="426.863" cy="110.213" r="42.5"/>
		<path style="fill:#FFFFFF;" d="M324.472,132.129c0,0,6.953-8.349,17.356-4.41c0,0,3.939-6.06,11.817-2.727
			c0,0,4.087-13.151,19.576-14.66c14.361-1.399,21.229,10.014,21.229,10.014s8.232-3.03,11.868,5.227c0,0,16.665-7.269,26.513,6.556
			H324.472z"/>
		<path style="fill:#FFFFFF;" d="M414.14,105.318c0,0,6.953-8.349,17.356-4.41c0,0,3.939-6.06,11.817-2.727
			c0,0,4.087-13.151,19.576-14.66c14.361-1.399,21.229,10.014,21.229,10.014s8.232-3.03,11.868,5.227c0,0,16.665-7.269,26.513,6.556
			H414.14z"/>
	</g>
	<g>
		<path style="fill:#3557B5;" d="M555.586,356.671H194.414c-3.183,0-5.763-2.58-5.763-5.763V144.224c0-3.183,2.58-5.763,5.763-5.763
			h361.171c3.183,0,5.763,2.58,5.763,5.763v206.683C561.349,354.09,558.769,356.671,555.586,356.671z"/>
		<path style="fill:#FFFFFF;" d="M549.077,337.671H200.923c-1.807,0-3.272-1.465-3.272-3.272V150.733
			c0-1.807,1.465-3.272,3.272-3.272h348.154c1.807,0,3.272,1.465,3.272,3.272v183.666
			C552.349,336.206,550.884,337.671,549.077,337.671z"/>
		<circle style="fill:#D0DDF7;" cx="375" cy="247.961" r="75.31"/>
		<path style="fill:#3557B5;" d="M563.435,385.819h-376.87c-4.371,0-7.914-3.543-7.914-7.914v-10.766h392.698v10.766
			C571.349,382.276,567.806,385.819,563.435,385.819z"/>
		<path style="fill:#2F499F;" d="M563.435,380.221h-376.87c-4.371,0-7.914-3.543-7.914-7.914v5.597c0,4.371,3.543,7.914,7.914,7.914
			h376.87c4.371,0,7.914-3.543,7.914-7.914v-5.597C571.349,376.678,567.806,380.221,563.435,380.221z"/>
		<path style="fill:#B3C6F2;" d="M422.41,374.624h-94.82c-4.134,0-7.485-3.351-7.485-7.485l0,0h109.789l0,0
			C429.895,371.273,426.544,374.624,422.41,374.624z"/>
		<g>
			<rect x="223.994" y="356.671" style="fill:#2F499F;" width="54.433" height="10.469"/>
			<rect x="471.573" y="356.671" style="fill:#2F499F;" width="54.433" height="10.469"/>
		</g>
		<path style="fill:#D0DDF7;" d="M386.242,350.624h-22.484c-1.945,0-3.537-1.592-3.537-3.537l0,0c0-1.945,1.592-3.537,3.537-3.537
			h22.484c1.945,0,3.537,1.592,3.537,3.537l0,0C389.779,349.032,388.187,350.624,386.242,350.624z"/>
		<circle style="fill:#203D8E;" cx="375" cy="142.977" r="2.747"/>
		<g>
			<defs>
				<path id="SVGID_1_" d="M494.568,225.74c0,18.666-51.049,57.966-62.295,71.124c-13.813,16.162-34.347,26.407-57.274,26.407
					c-41.592,0-75.31-33.717-75.31-75.31s33.717-95.247,75.31-95.247S494.568,184.148,494.568,225.74z"/>
			</defs>
			<clipPath id="SVGID_00000160166244711312539730000010903909368474961028_">
				<use xlink:href="#SVGID_1_"  style="overflow:visible;"/>
			</clipPath>
			<g style="clip-path:url(#SVGID_00000160166244711312539730000010903909368474961028_);">
				<path style="fill:#23377A;" d="M409.879,216.279c3.158-17.527-4.826-11.937-5.185-27.663s-10.819-21.878-10.819-21.878
					c-15.479-11.027-29.69-5.905-37.743-0.796c0,0-10.459,6.152-10.819,21.878s-9.902,10.932-6.744,28.459
					c1.715,9.517-12.884,16.674-12.126,26.337c0.729,9.299,20.024,21.185,45.641,22.352c0.405,0.05,0.821,0.077,1.248,0.077
					c0.3,0,0.594-0.013,0.893-0.017c0.298,0.004,0.593,0.017,0.893,0.017c0.427,0,0.843-0.026,1.248-0.077
					c25.617-1.167,44.912-13.053,45.641-22.352C422.763,232.953,408.165,225.797,409.879,216.279z"/>
				<g>
					<g>
						<g>
							<path style="fill:#F5B8A5;" d="M450.31,237.795c0,0,6.293-7.453,8.12-9.558c1.827-2.105,6.742-3.727,9.218-3.866
								c2.476-0.139,6.733-4.586,9.646-4.863c2.912-0.277-2.262,7.342-2.262,7.342s5.293,0.384,8.521-0.789s6.438-4.064,7.798-4.423
								s1.122,3.171-4.588,7.703c-5.711,4.532-12.006,4.847-12.758,4.861c-0.752,0.014-9.376,1.764-10.826,3.835
								c-1.45,2.071-5.03,7.948-5.03,7.948L450.31,237.795z"/>
							<path style="fill:#EA9686;" d="M467.648,224.372c-1.039,0.058-2.508,0.38-3.998,0.887c4.917-0.024,11.382,1.591,11.382,1.591
								s5.174-7.619,2.262-7.342C474.381,219.786,470.124,224.232,467.648,224.372z"/>
							<path style="fill:#F5B8A5;" d="M461.934,239.912c0,0-18.852,41.063-27.977,41.688c-6.111,0.419-19.922-15.165-19.922-15.165
								l12.363-14.74c0,0,5.184,5.78,6.934,6.655s16.977-20.555,16.977-20.555L461.934,239.912z"/>
						</g>
						<polygon style="fill:#B3C6F2;" points="401.638,227.301 431.768,253.382 416.28,271.849 383.934,239.607 						"/>
						<polygon style="fill-rule:evenodd;clip-rule:evenodd;fill:#92ACE0;" points="404.332,247.143 416.28,271.849 405.204,260.809 
													"/>
					</g>
					<path style="fill-rule:evenodd;clip-rule:evenodd;fill:#EA9686;" d="M429.999,255.491l-5.226,21.333
						c-2.613-2.125-5.176-4.586-7.145-6.583L429.999,255.491L429.999,255.491z"/>
					<path style="fill:#F5B8A5;" d="M341.706,305.443c0,0-35.127-22.854-34.274-31.96c0.571-6.098,17.929-22.432,17.929-22.432
						l9.54,15.922c0,0-5.292,6.793-6.437,8.379c-1.145,1.586,17.205,18.96,17.205,18.96L341.706,305.443z"/>
					<path style="fill:#EA9686;" d="M320.431,255.93C320.431,255.93,320.431,255.93,320.431,255.93l8.98,18.154
						c0.639-0.842,1.462-1.913,2.28-2.973l2.241-5.752l0,0L329,257.124L320.431,255.93z"/>
					<path style="fill:#EA9686;" d="M336.8,302.124c0.336-0.33,0.658-0.748,0.948-1.28c1.579-2.902,2.177-10.343,2.177-10.343
						l-9.885,6.789C332.555,299.147,334.886,300.798,336.8,302.124z"/>
				</g>
				<g>
					<g>
						<g>
							<path style="fill:#F5B8A5;" d="M398.662,192.22c-2.798-1.249-4.609-0.102-5.54,0.859l-1.037,7.394
								c-0.141,1.007-0.359,2.012-0.64,3.006C399.958,205.669,402.926,194.124,398.662,192.22z"/>
							<path style="fill:#F5B8A5;" d="M351.571,192.22c2.798-1.249,4.609-0.102,5.54,0.859l1.037,7.394
								c0.141,1.007,0.359,2.012,0.64,3.006C350.275,205.669,347.307,194.124,351.571,192.22z"/>
							<path style="fill-rule:evenodd;clip-rule:evenodd;fill:#EA9686;" d="M354.876,195.558c0,0-1.043-1.509-2.177-0.278
								c-1,1.086-0.531,4.851,3.177,5.278c0,0-1.817-1.396-1.99-3.24C353.789,196.284,354.459,195.673,354.876,195.558z"/>
							<path style="fill-rule:evenodd;clip-rule:evenodd;fill:#EA9686;" d="M395.357,195.558c0,0,1.043-1.509,2.177-0.278
								c1,1.086,0.531,4.851-3.177,5.278c0,0,1.817-1.396,1.99-3.24C396.444,196.284,395.774,195.673,395.357,195.558z"/>
						</g>
						<g>
							<g>
								<g>
									<g>
										<path style="fill-rule:evenodd;clip-rule:evenodd;fill:#EA9686;" d="M375,198.752L375,198.752
											c-4.49,0-8.163,4.279-8.163,9.509v18.204c0,5.23,3.673,9.509,8.163,9.509l0,0c4.489,0,8.163-4.279,8.163-9.509v-18.204
											C383.163,203.031,379.489,198.752,375,198.752z"/>
									</g>
								</g>
							</g>
						</g>
						<path style="fill-rule:evenodd;clip-rule:evenodd;fill:#F5B8A5;" d="M356.652,188.598c0-9.246,8.309-16.811,18.463-16.811
							h0.002c10.154,0,18.463,7.564,18.463,16.811c0,0,0.976,32.099-18.463,32.102v0l-0.001,0l-0.001,0l0,0
							C355.677,220.697,356.652,188.598,356.652,188.598z"/>
						<path style="fill-rule:evenodd;clip-rule:evenodd;fill:#23377A;" d="M385.968,194.735c0.854,0,1.553,0.699,1.553,1.553v0.007
							c-0.083-0.011-0.161-0.029-0.25-0.029c-0.609,0-1.104,0.28-1.104,0.625c0,0.345,0.494,0.625,1.104,0.625
							c0.089,0,0.167-0.017,0.25-0.029v1.789c0,0.854-0.699,1.553-1.553,1.553s-1.553-0.699-1.553-1.553v-2.989
							C384.415,195.434,385.114,194.735,385.968,194.735z"/>
						<path style="fill-rule:evenodd;clip-rule:evenodd;fill:#23377A;" d="M387.073,195.473c0.527,0.007,2.553-0.986,1.366-0.826
							c-1.187,0.16-2.47,0.088-2.47,0.088s0.224,1.143,1.196,1.196c0,0,0.757,0.053,1.286-0.406
							C388.823,195.203,387.774,195.678,387.073,195.473z"/>
						<g>
							<g>
								<path style="fill:#23377A;" d="M372.182,191.495c-0.144,0.055-0.305,0.067-0.465,0.024
									c-2.055-0.555-4.615,0.529-5.831,1.394c-0.34,0.24-0.807,0.16-1.046-0.178c-0.24-0.338-0.16-0.806,0.178-1.046
									c1.247-0.885,4.334-2.362,7.09-1.619c0.4,0.108,0.637,0.52,0.529,0.92C372.572,191.231,372.398,191.412,372.182,191.495z"/>
							</g>
						</g>
						<g>
							<g>
								<path style="fill:#23377A;" d="M383.312,191.495c0.144,0.055,0.305,0.067,0.465,0.024c2.055-0.555,4.615,0.529,5.831,1.394
									c0.34,0.24,0.807,0.16,1.046-0.178c0.24-0.338,0.16-0.806-0.178-1.046c-1.247-0.885-4.334-2.362-7.09-1.619
									c-0.4,0.108-0.637,0.52-0.529,0.92C382.922,191.231,383.097,191.412,383.312,191.495z"/>
							</g>
						</g>
						<path style="fill-rule:evenodd;clip-rule:evenodd;fill:#23377A;" d="M369.526,194.735c-0.854,0-1.553,0.699-1.553,1.553v0.007
							c0.083-0.011,0.161-0.029,0.25-0.029c0.609,0,1.104,0.28,1.104,0.625c0,0.345-0.494,0.625-1.104,0.625
							c-0.089,0-0.167-0.017-0.25-0.029v1.789c0,0.854,0.699,1.553,1.553,1.553s1.553-0.699,1.553-1.553v-2.989
							C371.079,195.434,370.381,194.735,369.526,194.735z"/>
						<path style="fill-rule:evenodd;clip-rule:evenodd;fill:#E27466;" d="M371.595,207.975c0,3.267,2.649,5.916,5.916,5.916
							c3.267,0,5.916-2.649,5.916-5.916H371.595z"/>
						<path style="fill-rule:evenodd;clip-rule:evenodd;fill:#FFFFFF;" d="M383.056,209.972c0.226-0.626,0.37-1.292,0.37-1.997
							h-11.832c0,0.704,0.144,1.37,0.37,1.997H383.056z"/>
						<path style="fill-rule:evenodd;clip-rule:evenodd;fill:#23377A;" d="M368.422,195.473c-0.527,0.007-2.553-0.986-1.366-0.826
							s2.47,0.088,2.47,0.088s-0.224,1.143-1.196,1.196c0,0-0.757,0.053-1.286-0.406
							C366.672,195.203,367.72,195.678,368.422,195.473z"/>
					</g>
				</g>
				<path style="fill-rule:evenodd;clip-rule:evenodd;fill:#B3C6F2;" d="M342.554,298.734c0.212-7.026,3.719-61.092,4.259-69.217
					c0.107-1.612,1.292-2.942,2.878-3.247c4.809-0.923,9.052-1.634,11.283-2.434c2.639-0.946,5.33-1.753,5.975-1.028
					c0,0,2.028,5.305,8.051,5.305s8.275-5.178,8.275-5.178c0.645-0.725,3.113-0.044,5.751,0.902c2.231,0.8,6.474,1.511,11.283,2.434
					c1.586,0.304,2.771,1.635,2.878,3.247c0.54,8.125,4.047,62.192,4.259,69.217c0.212,7.026,6.14,18.335,5.404,19.706
					c0,0-13.863,9.825-37.85,9.098c-23.987,0.727-37.85-9.098-37.85-9.098C336.413,317.069,342.342,305.759,342.554,298.734z"/>
				<path style="fill-rule:evenodd;clip-rule:evenodd;fill:#FFFFFF;" d="M387.858,223.434c-2.167-0.714-4.034-1.117-4.583-0.501
					c0,0-2.252,5.178-8.275,5.178s-8.051-5.305-8.051-5.305c-0.533-0.599-2.468-0.147-4.612,0.56l12.779,22.619L387.858,223.434z"/>
				<path style="fill-rule:evenodd;clip-rule:evenodd;fill:#2F499F;" d="M343.187,286.864v34.818
					c6.237,2.79,17.122,6.301,31.813,5.856c23.987,0.727,37.85-9.098,37.85-9.098c0.737-1.371-5.192-12.68-5.404-19.706
					c-0.051-1.683-0.291-6.068-0.634-11.87L343.187,286.864C343.187,286.864,343.187,286.864,343.187,286.864z"/>
				<path style="fill-rule:evenodd;clip-rule:evenodd;fill:#1D3987;" d="M407.446,305.934c0.121,4.016,2.109,9.429,3.653,13.588
					c1.15-0.659,1.75-1.082,1.75-1.082c0.737-1.371-5.192-12.68-5.404-19.706c-0.051-1.683-0.291-6.068-0.634-11.87h-63.625
					c0,0,0,0,0,0v7.2h63.625C407.156,299.866,407.396,304.251,407.446,305.934z"/>
				<path style="fill-rule:evenodd;clip-rule:evenodd;fill:#4764B5;" d="M383.163,222.739c0.047-0.035,0.095-0.069,0.154-0.094
					l0.108-0.047c1.003-0.291,3.319,0.419,5.601,1.237c2.231,0.8,6.474,1.511,11.283,2.434c1.586,0.304,2.771,1.635,2.878,3.247
					c0.54,8.125,4.047,62.192,4.259,69.217s8.638,21.557,7.901,22.928c0,0-11.621,8.771-30.171,8.771L383.163,222.739z"/>
				<g>
					<g>
						<polygon style="fill:#B3C6F2;" points="348.362,227.301 318.232,253.382 333.721,271.849 366.066,239.607 						"/>
						<polygon style="fill-rule:evenodd;clip-rule:evenodd;fill:#92ACE0;" points="345.668,247.143 333.721,271.849 
							344.796,260.809 						"/>
					</g>
				</g>
				<path style="fill:#23377A;" d="M388.021,181.157c0,0-4.074,6.417-16.2,6.417s-15.776,6.15-14.235,12.51c0,0-5.375,1.331-5.659,0
					c-0.284-1.331-1.895-17.91-1.421-19.331c0.474-1.421,0.786-5.733,3.709-6.608c2.923-0.876,7.827-5.328,13.759-5.707
					c5.932-0.379,8.259-2.727,12.638-1.174s14.691,11.29,15.408,11.964c0.718,0.674,2.991,8.252,3.181,9.2
					c0.189,0.947,0,6.37,0,6.37l-5.611-3.812C393.589,190.985,387.263,186.961,388.021,181.157z"/>
				<path style="fill-rule:evenodd;clip-rule:evenodd;fill:#4764B5;" d="M366.837,222.739c-0.047-0.035-0.095-0.069-0.154-0.094
					l-0.108-0.047c-1.003-0.291-3.319,0.419-5.601,1.237c-2.231,0.8-6.474,1.511-11.283,2.434c-1.586,0.304-2.771,1.635-2.878,3.247
					c-0.54,8.125-4.047,62.192-4.259,69.217s-8.638,21.557-7.901,22.928c0,0,11.621,8.771,30.171,8.771L366.837,222.739z"/>
				<g>
					<circle style="fill-rule:evenodd;clip-rule:evenodd;fill:#4764B5;" cx="375.117" cy="254.432" r="1.497"/>
					<circle style="fill-rule:evenodd;clip-rule:evenodd;fill:#4764B5;" cx="375.117" cy="262.376" r="1.497"/>
					<circle style="fill-rule:evenodd;clip-rule:evenodd;fill:#4764B5;" cx="375.117" cy="270.32" r="1.497"/>
				</g>
				<path style="fill:#23377A;" d="M357.586,200.084l0.734,3.503l-9.772,4.847c0,0-5.305-3.207-4.926-6.364
					c0.379-3.158,6.063-12.126,7.958-14.021c1.895-1.895,2.274-7.958,10.105-10.232c7.832-2.274,7.016-3.284,12.54-3.284
					s10.558,0.126,12.588,0c2.03-0.126,2.311-1.011,4.634,0c2.323,1.011,6.997,6.189,7.249,6.695s4.042,10.017,4.042,10.017
					s1.011,6.845,1.263,7.509c0.253,0.664,1.642,3.328-1.642,4.712c-3.284,1.384-8.769,2.394-8.769,2.394l-1.675-2.273l1.577-10.938
					l1.541-11.8l-11.869-1.137c0,0-12.616,0.253-13.637,0.505c-1.021,0.253-10.099,5.305-10.739,6.189
					c-0.64,0.884-2.912,4.838-2.912,4.838v5L357.586,200.084z"/>
				<path style="fill:#F5B8A5;" d="M345.597,294.333c-0.705-0.172-2.941-0.402-2.941-0.402l0.593-3.928c0,0-1.734-0.468-3.325,0.497
					c-1.197,0.727-4.549,6.292-4.666,10.872s5.936,6.586,8.108,6.128c0,0,0.899,0.055,1.272-1.485
					c0.306-1.263-0.896-1.609-0.896-1.609s1.202,0.138,1.485-1.862c0.209-1.475-1.108-1.701-1.108-1.701s1.457,0.056,1.58-1.271
					c0.1-1.081,0.165-1.924-0.755-2.223c0,0,1.296-0.092,1.414-1.528C346.476,294.394,345.597,294.333,345.597,294.333z"/>
				<path style="fill:#EA9686;" d="M345.184,302.742c-0.068,0.069-1.341,1.322-3.375,0.606c-2.092-0.735,0.651,0.896,1.934,1.057
					c0.045,0.006,0.086-0.006,0.13-0.004C344.169,304.377,344.915,304.157,345.184,302.742z"/>
				<g>
					<path style="fill:#EA9686;" d="M345.699,299.573c0.042-0.45,0.072-0.855,0.033-1.2c-0.009,0.059-0.195,1.261-0.89,1.575
						c-0.712,0.322-2.912,0.184-3.168,0c-0.257-0.184-0.162,0.621,2.446,0.896C344.12,300.844,345.577,300.9,345.699,299.573z"/>
					<path style="fill:#EA9686;" d="M344.945,297.35c0,0,1.296-0.092,1.414-1.528c0.04-0.482-0.038-0.798-0.154-1.019
						c-0.001,0.042-0.049,1.357-1.202,1.651c-1.172,0.299-2.749,0.023-2.742,0C342.268,296.431,341.76,296.591,344.945,297.35z"/>
				</g>
			</g>
		</g>
		<path style="fill:#E27466;" d="M378.05,196.357c0,0,1.035,4.33,2.09,5.836c1.054,1.506,0.113,2.41-2.447,2.372
			c-2.56-0.038,0.828-0.565,0.941-1.92C378.747,201.289,377.24,199.256,378.05,196.357z"/>
		<g>
			<g>
				<g>
					<circle style="fill:#D4484C;" cx="489.23" cy="309.497" r="11.861"/>
				</g>
			</g>
			<g>
				<circle style="fill:#4764B5;" cx="455.73" cy="309.497" r="11.861"/>
			</g>
			<path style="fill:#FFFFFF;" d="M459.334,310.618l-0.921,0.921l2.868,2.868l0.921-0.921c0.115-0.115,0.115-0.302-0.001-0.418
				l-2.45-2.45C459.636,310.503,459.449,310.503,459.334,310.618z M450.469,307.212c0.341,1.597,2.323,3.698,3.158,4.526
				c0.827,0.834,2.928,2.816,4.526,3.157c0.625,0.132,1.936,0.381,2.863-0.268l-2.844-2.844c-0.003,0.003-0.005,0.006-0.008,0.009
				c-0.278,0.154-1.017,0.31-2.306-1.138c-0.077-0.077-0.146-0.145-0.211-0.211c-0.726-0.726-0.728-0.728-0.728-0.728
				c-0.065-0.065-0.133-0.133-0.21-0.21c-1.447-1.288-1.292-2.028-1.138-2.306c0.003-0.002,0.006-0.005,0.009-0.008l-2.844-2.844
				C450.087,305.276,450.337,306.588,450.469,307.212z M451.879,303.163l-0.921,0.921l2.868,2.868l0.921-0.921
				c0.115-0.115,0.115-0.302,0-0.417l-2.451-2.451C452.181,303.048,451.994,303.048,451.879,303.163z"/>
			<g>
				<circle style="fill:#4764B5;" cx="522.73" cy="309.497" r="11.861"/>
			</g>
			<g>
				<g>
					<g>
						<path style="fill:#FFFFFF;" d="M522.73,310.413L522.73,310.413c-1.041,0-1.884-0.844-1.884-1.884v-3.809
							c0-1.041,0.844-1.884,1.884-1.884l0,0c1.041,0,1.884,0.844,1.884,1.884v3.809C524.614,309.57,523.771,310.413,522.73,310.413z
							"/>
					</g>
					<path style="fill:none;stroke:#FFFFFF;stroke-miterlimit:10;" d="M519.013,306.909v1.136c0,2.053,1.664,3.717,3.716,3.717l0,0
						v3.864"/>
					<path style="fill:none;stroke:#FFFFFF;stroke-miterlimit:10;" d="M526.446,306.909v1.136c0,2.053-1.664,3.717-3.716,3.717l0,0"
						/>
				</g>
				<line style="fill:none;stroke:#FFFFFF;stroke-miterlimit:10;" x1="521.076" y1="315.625" x2="524.439" y2="315.625"/>
			</g>
		</g>
		<g>
			<path style="fill:#FFFFFF;" d="M491.541,312.844h-7.552c-0.455,0-0.823-0.369-0.823-0.823v-4.939
				c0-0.455,0.369-0.823,0.823-0.823h7.552c0.455,0,0.823,0.369,0.823,0.823v4.939C492.364,312.475,491.995,312.844,491.541,312.844
				z"/>
			<path style="fill:#FFFFFF;" d="M495.806,311.938l-2.549-0.767c-0.177-0.053-0.299-0.217-0.299-0.402v-2.435
				c0-0.185,0.121-0.349,0.299-0.402l2.549-0.767c0.269-0.081,0.541,0.121,0.541,0.402v3.969
				C496.347,311.817,496.076,312.019,495.806,311.938z"/>
		</g>
	</g>
	<g>
		<g>
			<g>
				<rect x="307.548" y="385.785" style="fill:#D4484C;" width="134.904" height="23.556"/>
				<rect x="307.548" y="389.069" style="fill:#FFFFFF;" width="46.879" height="16.987"/>
			</g>
			<rect x="307.548" y="403.021" style="fill:#E6E7E8;" width="46.879" height="1.206"/>
			<rect x="307.548" y="400.007" style="fill:#E6E7E8;" width="46.879" height="1.206"/>
			<rect x="307.548" y="396.993" style="fill:#E6E7E8;" width="46.879" height="1.206"/>
			<rect x="307.548" y="393.978" style="fill:#E6E7E8;" width="46.879" height="1.206"/>
			<rect x="307.548" y="390.964" style="fill:#E6E7E8;" width="46.879" height="1.206"/>
			<rect x="366.253" y="385.785" style="fill:#EF5B5B;" width="4.858" height="23.556"/>
			<rect x="426.784" y="385.785" style="fill:#EF5B5B;" width="4.858" height="23.556"/>
			<rect x="383.9" y="392.17" style="fill:#EF5B5B;" width="33.163" height="10.721"/>
		</g>
		<g>
			<g>
				<g>
					
						<rect x="219.325" y="409.406" transform="matrix(-1 -4.490021e-11 4.490021e-11 -1 573.5543 842.3674)" style="fill:#F4A945;" width="134.904" height="23.556"/>
					
						<rect x="307.351" y="412.69" transform="matrix(-1 -4.485535e-11 4.485535e-11 -1 661.5803 842.3674)" style="fill:#FFFFFF;" width="46.879" height="16.987"/>
				</g>
				
					<rect x="307.351" y="426.642" transform="matrix(-1 -4.493307e-11 4.493307e-11 -1 661.5803 854.4903)" style="fill:#E6E7E8;" width="46.879" height="1.206"/>
				
					<rect x="307.351" y="423.628" transform="matrix(-1 -4.493307e-11 4.493307e-11 -1 661.5803 848.4616)" style="fill:#E6E7E8;" width="46.879" height="1.206"/>
				
					<rect x="307.351" y="420.614" transform="matrix(-1 -4.493307e-11 4.493307e-11 -1 661.5803 842.4329)" style="fill:#E6E7E8;" width="46.879" height="1.206"/>
				
					<rect x="307.351" y="417.599" transform="matrix(-1 -4.493307e-11 4.493307e-11 -1 661.5803 836.4042)" style="fill:#E6E7E8;" width="46.879" height="1.206"/>
				
					<rect x="307.351" y="414.585" transform="matrix(-1 -4.493307e-11 4.493307e-11 -1 661.5803 830.3755)" style="fill:#E6E7E8;" width="46.879" height="1.206"/>
				
					<rect x="290.666" y="409.406" transform="matrix(-1 -4.493040e-11 4.493040e-11 -1 586.1909 842.3674)" style="fill:#FFCA8A;" width="4.858" height="23.556"/>
				
					<rect x="230.135" y="409.406" transform="matrix(-1 -4.493040e-11 4.493040e-11 -1 465.1291 842.3674)" style="fill:#FFCA8A;" width="4.858" height="23.556"/>
				
					<rect x="244.714" y="415.791" transform="matrix(-1 -4.486734e-11 4.486734e-11 -1 522.5917 842.3019)" style="fill:#FFCA8A;" width="33.163" height="10.721"/>
			</g>
			<g>
				<g>
					
						<rect x="395.771" y="409.406" transform="matrix(-1 -4.490021e-11 4.490021e-11 -1 926.4457 842.3674)" style="fill:#00A79D;" width="134.904" height="23.556"/>
					
						<rect x="483.797" y="412.69" transform="matrix(-1 -4.485535e-11 4.485535e-11 -1 1014.4716 842.3674)" style="fill:#FFFFFF;" width="46.879" height="16.987"/>
				</g>
				
					<rect x="483.797" y="426.642" transform="matrix(-1 -4.493307e-11 4.493307e-11 -1 1014.4716 854.4903)" style="fill:#E6E7E8;" width="46.879" height="1.206"/>
				
					<rect x="483.797" y="423.628" transform="matrix(-1 -4.493307e-11 4.493307e-11 -1 1014.4716 848.4616)" style="fill:#E6E7E8;" width="46.879" height="1.206"/>
				
					<rect x="483.797" y="420.614" transform="matrix(-1 -4.493307e-11 4.493307e-11 -1 1014.4716 842.4329)" style="fill:#E6E7E8;" width="46.879" height="1.206"/>
				
					<rect x="483.797" y="417.599" transform="matrix(-1 -4.493307e-11 4.493307e-11 -1 1014.4716 836.4042)" style="fill:#E6E7E8;" width="46.879" height="1.206"/>
				
					<rect x="483.797" y="414.585" transform="matrix(-1 -4.493307e-11 4.493307e-11 -1 1014.4716 830.3755)" style="fill:#E6E7E8;" width="46.879" height="1.206"/>
				
					<rect x="467.112" y="409.406" transform="matrix(-1 -4.493040e-11 4.493040e-11 -1 939.0823 842.3674)" style="fill:#12C6B4;" width="4.858" height="23.556"/>
				
					<rect x="406.581" y="409.406" transform="matrix(-1 -4.493040e-11 4.493040e-11 -1 818.0204 842.3674)" style="fill:#12C6B4;" width="4.858" height="23.556"/>
				
					<rect x="421.16" y="415.791" transform="matrix(-1 -4.486734e-11 4.486734e-11 -1 875.483 842.3019)" style="fill:#12C6B4;" width="33.163" height="10.721"/>
			</g>
		</g>
	</g>
	<g>
		<g>
			<g>
				<path style="fill:#F4A945;" d="M158.614,166.883h-44.979c-2.264,0-4.099-1.827-4.099-4.08v-20.297
					c0-2.253,1.835-4.08,4.099-4.08h44.979c2.264,0,4.099,1.827,4.099,4.08v20.297C162.714,165.057,160.878,166.883,158.614,166.883
					z"/>
			</g>
			<g>
				<polygon style="fill:#F4A945;" points="126.873,166.586 126.873,175.357 136.762,165.468 				"/>
			</g>
			<g>
				<g>
					<circle style="fill:#FFFFFF;" cx="136.125" cy="152.655" r="2.498"/>
				</g>
				<g>
					<g>
						<circle style="fill:#FFFFFF;" cx="123.677" cy="152.655" r="2.498"/>
					</g>
				</g>
				<g>
					<circle style="fill:#FFFFFF;" cx="148.573" cy="152.655" r="2.498"/>
				</g>
			</g>
		</g>
		<g>
			<path style="fill:#3557B5;" d="M578.512,132.873h68.776c1.414,0,2.561,1.147,2.561,2.561v29.249c0,1.414-1.147,2.561-2.561,2.561
				h-29.314l-10.5,7.452l2.25-7.452h-31.212c-1.414,0-2.561-1.147-2.561-2.561v-29.249
				C575.951,134.02,577.098,132.873,578.512,132.873z"/>
			<g>
				<rect x="583.175" y="140.276" style="fill:#FFFFFF;" width="34.003" height="3.804"/>
				<rect x="583.175" y="148.057" style="fill:#FFFFFF;" width="60.906" height="3.804"/>
			</g>
			<g>
				<rect x="583.175" y="155.646" style="fill:#FFFFFF;" width="60.906" height="3.804"/>
			</g>
		</g>
		<g>
			
				<text transform="matrix(1 0 0 1 550.2199 112.8634)" style="fill:#D4484C; font-family:'FontAwesome5FreeSolid'; font-size:25.781px;">search</text>
		</g>
		<g>
			<g>
				
					<text transform="matrix(1 0 0 1 319.7605 105.3177)" style="fill:#3557B5; font-family:'FontAwesome5FreeSolid'; font-size:34.5424px;">COG</text>
			</g>
		</g>
		<g>
			<g>
				
					<text transform="matrix(1 0 0 1 131.6343 340.2676)" style="fill:#FFFFFF; font-family:'FontAwesome5FreeSolid'; font-size:25.8565px;">clock</text>
			</g>
		</g>
	</g>
	<g>
		<g>
			
				<text transform="matrix(1 0 0 1 609.439 216.9575)" style="fill:#00A79D; font-family:'FontAwesome5FreeSolid'; font-size:27.2949px;">GLOBE</text>
		</g>
	</g>
	<g>
		<g>
			<g>
				<path style="fill:#B3C6F2;" d="M610.397,434.499c0,0,8.711-19.137,33.348-21.245c25.558-2.186,16.444,14.721-4.938,14.736
					S610.397,434.499,610.397,434.499z"/>
				<path style="fill:#FFFFFF;" d="M657.813,417.818c-2.168-0.04-4.333,0.014-6.492,0.157c-2.159,0.126-4.312,0.327-6.451,0.615
					c-4.28,0.56-8.524,1.406-12.638,2.684c-4.125,1.233-8.116,2.915-11.829,5.092c-3.72,2.168-7.098,4.913-10.006,8.134
					c1.333-1.71,2.811-3.317,4.432-4.775c1.648-1.422,3.382-2.759,5.24-3.909c3.702-2.325,7.762-4.03,11.919-5.341
					c4.186-1.228,8.476-2.093,12.808-2.521C649.124,417.527,653.491,417.403,657.813,417.818z"/>
			</g>
			<g>
				<path style="fill:#B3C6F2;" d="M610.378,434.656c0,0-12.845-25.997,6.391-54.152c19.956-29.209,30.067-4.727,11.435,18.127
					C609.572,421.485,610.378,434.656,610.378,434.656z"/>
				<path style="fill:#FFFFFF;" d="M633.914,369.456c-1.934,2.281-3.765,4.641-5.495,7.071c-1.748,2.416-3.412,4.891-4.97,7.428
					c-3.134,5.061-5.933,10.332-8.155,15.841c-2.281,5.482-3.965,11.212-4.878,17.077c-0.929,5.864-0.942,11.867-0.038,17.783
					c-0.664-2.915-1.091-5.895-1.235-8.899c-0.081-3.001,0.003-6.02,0.394-9.007c0.744-5.982,2.464-11.807,4.691-17.391
					c2.34-5.542,5.156-10.88,8.477-15.88C626.026,378.484,629.701,373.711,633.914,369.456z"/>
			</g>
			<g>
				<path style="fill:#92ACE0;" d="M610.397,434.499c0,0,0.462-24.865,26.211-38.73c26.713-14.384,24.765,8.25,1.566,18.315
					S610.397,434.499,610.397,434.499z"/>
				<path style="fill:#FFFFFF;" d="M654.022,394.111c-2.378,0.959-4.706,2.029-6.988,3.187c-2.288,1.145-4.535,2.369-6.727,3.682
					c-4.391,2.61-8.604,5.526-12.476,8.845c-3.898,3.284-7.444,6.99-10.445,11.11c-3.012,4.112-5.377,8.693-6.99,13.564
					c0.66-2.477,1.515-4.912,2.6-7.249c1.127-2.313,2.385-4.573,3.865-6.688c2.931-4.251,6.532-8.006,10.429-11.374
					c3.959-3.301,8.204-6.253,12.696-8.763C644.476,397.92,649.147,395.721,654.022,394.111z"/>
			</g>
		</g>
		<g>
			<path style="fill:#B3C6F2;" d="M162.481,438.506c0,0,8.526-53.438-26.332-81.668c-27.196-22.025-38.118,3.867-7.273,25.665
				C149.781,397.276,154.456,408.473,162.481,438.506z"/>
			<g>
				<path style="fill:#FFFFFF;" d="M116.024,353.307c7.271,4.076,13.62,9.657,19.288,15.762c2.839,3.061,5.43,6.347,7.843,9.754
					c2.403,3.414,4.634,6.955,6.597,10.643c1.941,3.697,3.734,7.477,5.221,11.38c0.809,1.925,1.424,3.924,2.138,5.884
					c0.592,2,1.272,3.977,1.749,6.009l0.767,3.033c0.243,1.014,0.435,2.039,0.654,3.058c0.461,2.034,0.779,4.094,1.115,6.15
					c0.353,2.053,0.51,4.134,0.775,6.197c0.206,2.071,0.316,4.15,0.463,6.223c-0.809-8.277-2.264-16.48-4.516-24.458
					c-0.261-1.003-0.568-1.992-0.895-2.976l-0.933-2.963c-0.723-1.94-1.347-3.918-2.164-5.822c-1.501-3.86-3.31-7.593-5.255-11.243
					c-3.859-7.325-8.657-14.141-14.128-20.356c-2.738-3.108-5.677-6.041-8.789-8.782
					C122.843,358.06,119.568,355.485,116.024,353.307z"/>
			</g>
			<g>
				<path style="fill:#92ACE0;" d="M162.481,438.506c0,0-0.674-25.125-26.813-38.921c-27.116-14.313-24.959,8.544-1.429,18.522
					C157.769,428.084,162.481,438.506,162.481,438.506z"/>
				<g>
					<path style="fill:#FFFFFF;" d="M118.056,398.055c4.951,1.557,9.7,3.728,14.266,6.213c4.569,2.489,8.888,5.44,12.924,8.742
						c3.966,3.379,7.641,7.148,10.633,11.432c1.509,2.131,2.795,4.411,3.947,6.744c1.105,2.36,1.983,4.818,2.654,7.321
						c-1.701-4.9-4.141-9.496-7.225-13.615c-3.074-4.126-6.683-7.837-10.65-11.116c-3.933-3.324-8.211-6.231-12.661-8.842
						c-2.221-1.314-4.498-2.538-6.815-3.682C122.82,400.089,120.462,399.021,118.056,398.055z"/>
				</g>
			</g>
			<g>
				<path style="fill:#B3C6F2;" d="M162.481,438.506c0,0,3.511-24.887,31.041-35.64c28.561-11.155,23.833,11.311-0.674,18.564
					C168.341,428.684,162.481,438.506,162.481,438.506z"/>
				<g>
					<path style="fill:#FFFFFF;" d="M211.195,403.337c-2.499,0.688-4.963,1.482-7.389,2.376c-2.432,0.875-4.832,1.834-7.188,2.888
						c-4.717,2.091-9.297,4.496-13.58,7.354c-4.312,2.809-8.318,6.089-11.838,9.84c-3.531,3.744-6.475,8.034-8.718,12.711
						c0.95-2.411,2.1-4.753,3.465-6.974c1.409-2.188,2.944-4.308,4.684-6.254c3.457-3.919,7.535-7.247,11.857-10.157
						c4.384-2.824,9.008-5.268,13.83-7.225C201.135,405.944,206.099,404.324,211.195,403.337z"/>
				</g>
			</g>
			<g>
				<path style="fill:#92ACE0;" d="M162.481,438.506c0,0-7.885-28.662,16.943-53.27c25.757-25.529,31.183,1.077,7.993,20.466
					S162.481,438.506,162.481,438.506z"/>
				<g>
					<path style="fill:#FFFFFF;" d="M198.826,377.442c-2.402,1.905-4.709,3.918-6.933,6.018c-2.235,2.087-4.397,4.251-6.465,6.498
						c-4.151,4.479-7.993,9.246-11.309,14.362c-3.357,5.084-6.168,10.533-8.215,16.271c-2.061,5.734-3.223,11.785-3.423,17.916
						c-0.081-3.063,0.075-6.143,0.528-9.19c0.509-3.033,1.186-6.05,2.167-8.974c1.922-5.866,4.779-11.388,8.106-16.569
						c3.421-5.124,7.29-9.945,11.59-14.342C189.171,385.039,193.782,380.937,198.826,377.442z"/>
				</g>
			</g>
		</g>
	</g>
	<g>
		<path style="fill:#3557B5;" d="M104.743,446.383h540.513c3.709,0,6.743-3.035,6.743-6.743v0c0-3.709-3.035-6.743-6.743-6.743
			H104.743c-3.709,0-6.743,3.035-6.743,6.743v0C98,443.348,101.035,446.383,104.743,446.383z"/>
		<path style="fill:#2F499F;" d="M645.257,439.639H104.743c-2.481,0-4.656-1.362-5.826-3.372c-0.579,0.994-0.917,2.144-0.917,3.372
			v0c0,3.709,3.035,6.743,6.743,6.743h540.513c3.709,0,6.743-3.035,6.743-6.743v0c0-1.227-0.338-2.378-0.917-3.372
			C649.912,438.277,647.738,439.639,645.257,439.639z"/>
	</g>
	<g>
		<g>
			<path style="fill:#23377A;" d="M587.451,204.592c0,0-6.749-8.375-0.686-17.375c0,0,2.888-8.526,15.465-6.347
				c12.577,2.179,19.336,9.349,16.383,21.632l-23.012,7.168L587.451,204.592z"/>
			<path style="fill:#23377A;" d="M614.309,210.089c0,0-1.732,3.879-5.606,4.205c-3.874,0.326-3.053-5.8-1.727-6.243
				c1.326-0.442,3.853-2.829,5.305-2.078S614.309,210.089,614.309,210.089z"/>
			<g>
				<g>
					<g>
						<g>
							<g>
								<polygon style="fill:#23377A;" points="571.87,312.811 584.92,421.201 593.62,421.201 598.1,308.124 571.87,308.124 
																	"/>
							</g>
						</g>
						<path style="fill:#172B60;" d="M598.1,308.124h-25.12c-0.677,2.697-1.109,4.687-1.109,4.687s7.907,7.485,25.693,8.858
							L598.1,308.124z"/>
						<g>
							<g>
								<g>
									<polygon style="fill:#172B60;" points="584.92,421.201 564.517,427.823 564.517,430.979 594.313,430.979 593.62,421.201 
																			"/>
								</g>
							</g>
							<g>
								<g>
									<path style="fill:#FFFFFF;" d="M578.755,425.376c0.081,0,0.164-0.014,0.245-0.044c0.358-0.135,0.539-0.535,0.404-0.893
										l-0.811-2.152c-0.135-0.358-0.534-0.538-0.893-0.404c-0.358,0.135-0.539,0.535-0.404,0.893l0.811,2.152
										C578.211,425.205,578.475,425.376,578.755,425.376z"/>
								</g>
								<g>
									<path style="fill:#FFFFFF;" d="M581.331,424.567c0.081,0,0.164-0.014,0.245-0.044c0.358-0.135,0.539-0.535,0.404-0.893
										l-0.811-2.152c-0.135-0.358-0.534-0.537-0.893-0.404c-0.358,0.135-0.539,0.535-0.404,0.893l0.811,2.152
										C580.787,424.397,581.05,424.567,581.331,424.567z"/>
								</g>
							</g>
						</g>
						<polygon style="fill:#23377A;" points="624.956,312.811 611.907,421.201 603.207,421.201 598.727,308.124 624.956,308.124 
													"/>
						<path style="fill:#172B60;" d="M624.16,319.421l0.796-6.61v-4.687h-26.229l0.541,13.656
							C606.143,322.145,614.404,321.592,624.16,319.421z"/>
						<g>
							<g>
								<g>
									<polygon style="fill:#172B60;" points="611.907,421.201 632.309,427.823 632.309,430.979 602.514,430.979 603.207,421.201 
																			"/>
								</g>
							</g>
							<g>
								<g>
									<path style="fill:#FFFFFF;" d="M618.071,425.376c-0.081,0-0.164-0.014-0.245-0.044c-0.358-0.135-0.539-0.535-0.404-0.893
										l0.811-2.152c0.135-0.358,0.534-0.538,0.893-0.404c0.358,0.135,0.539,0.535,0.404,0.893l-0.811,2.152
										C618.615,425.205,618.351,425.376,618.071,425.376z"/>
								</g>
								<g>
									<path style="fill:#FFFFFF;" d="M615.496,424.567c-0.081,0-0.164-0.014-0.245-0.044c-0.358-0.135-0.539-0.535-0.404-0.893
										l0.811-2.152c0.135-0.358,0.534-0.537,0.893-0.404c0.358,0.135,0.539,0.535,0.404,0.893l-0.811,2.152
										C616.039,424.397,615.776,424.567,615.496,424.567z"/>
								</g>
							</g>
						</g>
						<g>
							<path style="fill:#23377A;" d="M596.518,243.913c0,0-22.994,13.419-35.867,16.323c-12.872,2.904-22.662-28.365-22.662-28.365
								l8.789-4.474c0,0,6.945,9.655,12.573,15.987c0,0,16.281-13.35,23.647-16.997L596.518,243.913z"/>
							<path style="fill:#172B60;" d="M589.184,247.98c-7.204,3.856-18.263,9.386-26.423,11.71
								c14.693-7.711,20.627-19.182,20.627-19.182S586.637,244.3,589.184,247.98z"/>
							<path style="fill:#23377A;" d="M606.464,225.988c0,0,9.268,0.777,15.151,1.776l6.993,81.883c0,0-18.203,7.326-32.189,6.216
								l-5.328,0.115c0,0-14.429-0.558-22.421-4.332l14.328-85.257l11.978-0.4H606.464z"/>
							<g>
								<circle style="fill:#4764B5;" cx="606.657" cy="281.823" r="1.437"/>
								<circle style="fill:#4764B5;" cx="606.657" cy="293.061" r="1.437"/>
								<circle style="fill:#4764B5;" cx="591.791" cy="281.823" r="1.437"/>
								<circle style="fill:#4764B5;" cx="591.791" cy="293.061" r="1.437"/>
							</g>
							<path style="fill:#172B60;" d="M599.005,267.379l15.973-26.724l-1.442-2.419l3.227-0.092l-6.539-11.792l-0.005-0.015
								c-2.219-0.22-3.755-0.349-3.755-0.349h-11.488l-4.142,0.138l-5.694,11.317l2.872,0.428l-1.873,2.427L599.005,267.379z"/>
							<path style="fill:#DAE1EF;" d="M599.005,267.379l9.09-41.246l-3.827,3.751l-3.827,0.766c0,0-3.243,0.55-3.25,0.575
								c-0.007,0.025-3.63-5.275-3.63-5.275L599.005,267.379z"/>
							<path style="fill:#F5B8A5;" d="M595.409,218.335v7.937c0,2.933,2.1,4.379,5.033,4.379l0,0c2.933,0,5.589-1.446,5.589-4.379
								v-9.019c0-2.933-2.378-5.311-5.311-5.311h0c-2.933,0-5.311,2.378-5.311,5.311V218.335z"/>
							<path style="fill:#EA9686;" d="M602.281,212.529l-6.291,0.583c0,0-0.22,0.091-0.581,0.244v5.568v4.123
								c9.368-1.221,10.622-6.368,10.622-6.368l-2.692-4.149H602.281z"/>
							<path style="fill:#F5B8A5;" d="M617.783,201.762c-3.115-1.511-5.117,2.776-5.117,2.776s-1.207-5.633-2.789-9.157
								c0,0-4.514-3.289-11.438-4.048c-7.558-0.988-10.796,4.712-11.114,7.742c-0.908,8.633,2.822,20.209,11.623,20.44
								c1.744,0.046,8.203-1.371,13.08-9.724C618.368,211.842,620.898,203.273,617.783,201.762z"/>
							<path style="fill:#EA9686;" d="M614.985,204.08c0,0,0.743-0.935,1.971-0.097c1.045,0.712-0.052,4.239-3.014,4.328
								c0,0,1.795-0.859,2.19-2.335C616.526,204.5,615.409,204.046,614.985,204.08z"/>
							<g>
								<path style="fill:#23377A;" d="M621.615,227.764c0,0,25.839,20.813,31.158,32.889c5.319,12.077-27.878,32.76-27.878,32.76
									l-0.828-10.888c0,0,7.28-10.628,12.415-17.365c0,0-9.158-6.811-13.633-12.061L621.615,227.764z"/>
								<path style="fill:#172B60;" d="M638.404,283.617c-3.938,3.244-7.8,5.988-10.38,7.739c-0.485-0.442-0.909-1.037-0.975-2.191
									c-0.116-2.027,0.645-6.452,0.645-6.452S633.158,284.781,638.404,283.617z"/>
								<path style="fill:#172B60;" d="M636.483,265.16c0,0-9.158-6.811-13.633-12.061l-0.413-8.484L636.483,265.16z"/>
								<path style="fill:#F5B8A5;" d="M623.313,285.076c0.522-0.073,2.157-0.078,2.157-0.078l-0.145-2.884
									c0,0,1.288-0.213,2.369,0.6c0.814,0.612,2.836,4.881,2.59,8.202s-4.771,4.335-6.309,3.847c0,0-0.654-0.026-0.813-1.166
									c-0.13-0.936,0.764-1.099,0.764-1.099s-0.88,0.013-0.94-1.454c-0.044-1.082,0.924-1.15,0.924-1.15s-1.058-0.065-1.051-1.034
									c0.006-0.79,0.02-1.404,0.707-1.554c0,0-0.931-0.16-0.913-1.208C622.673,285.057,623.313,285.076,623.313,285.076z"/>
								<path style="fill:#EA9686;" d="M623.004,291.19c0.044,0.055,0.874,1.053,2.398,0.683c1.566-0.381-0.536,0.601-1.476,0.625
									c-0.033,0.001-0.061-0.01-0.093-0.013C623.62,292.446,623.096,292.232,623.004,291.19z"/>
								<g>
									<path style="fill:#EA9686;" d="M622.86,288.86c0.002-0.329,0.009-0.624,0.063-0.871c0.002,0.044,0.05,0.926,0.53,1.204
										c0.492,0.284,2.093,0.344,2.292,0.229c0.199-0.114,0.072,0.461-1.834,0.472C623.911,289.893,622.853,289.828,622.86,288.86
										z"/>
									<path style="fill:#EA9686;" d="M623.567,287.306c0,0-0.931-0.16-0.913-1.208c0.006-0.351,0.085-0.575,0.185-0.726
										c-0.002,0.031-0.063,0.985,0.75,1.281c0.826,0.301,1.987,0.215,1.984,0.198
										C625.57,286.835,625.925,286.988,623.567,287.306z"/>
								</g>
							</g>
							<path style="fill:#E27466;" d="M597.454,204.288c0,0-0.763,3.191-1.54,4.301c-0.777,1.11-0.083,1.776,1.804,1.748
								c1.887-0.028-0.61-0.416-0.694-1.415C596.94,207.923,598.05,206.425,597.454,204.288z"/>
							<g>
								<path style="fill:#23377A;" d="M590.183,201.874c-0.138,0-0.276-0.057-0.375-0.169c-0.182-0.207-0.163-0.523,0.044-0.705
									c0.744-0.654,2.667-1.544,4.631-0.235c0.229,0.153,0.291,0.463,0.139,0.693c-0.154,0.231-0.463,0.29-0.693,0.139
									c-1.825-1.219-3.401,0.14-3.416,0.153C590.419,201.833,590.3,201.874,590.183,201.874z"/>
							</g>
							<g>
								<path style="fill:#23377A;" d="M605.532,201.874c0.138,0,0.276-0.057,0.375-0.169c0.182-0.207,0.163-0.523-0.044-0.705
									c-0.744-0.654-2.667-1.544-4.631-0.235c-0.229,0.153-0.291,0.463-0.139,0.693c0.154,0.231,0.463,0.29,0.693,0.139
									c1.825-1.219,3.401,0.14,3.416,0.153C605.297,201.833,605.415,201.874,605.532,201.874z"/>
							</g>
							<path style="fill:#E27466;" d="M595.049,213.338c0,0,4.057,2.662,7.181-0.901
								C602.23,212.437,599.354,213.923,595.049,213.338z"/>
							<polygon style="fill:#23377A;" points="598.855,235.894 597.002,252.133 599.005,267.379 602.484,251.594 601.897,235.81 
								600.442,236.747 							"/>
							<polygon style="fill:#FFFFFF;" points="595.404,224.673 600.442,230.65 597.203,235.096 593.562,225.95 							"/>
							<polygon style="fill:#FFFFFF;" points="600.442,230.65 606.031,224.183 608.096,226.133 603.968,235.096 							"/>
							<polygon style="fill:#4764B5;" points="590.884,226.026 587.451,236.747 592.109,236.747 588.92,239.772 599.005,267.379 
								593.562,225.95 							"/>
							<polygon style="fill:#4764B5;" points="610.225,226.352 614.309,236.747 609.906,236.747 612.616,239.288 599.005,267.379 
								608.096,226.133 							"/>
							<polygon style="fill:#23377A;" points="600.188,231.225 597.902,234.697 600.421,236.052 602.983,234.401 							"/>
						</g>
					</g>
					<rect x="564.517" y="430.979" style="fill:#23377A;" width="29.796" height="1.917"/>
					<rect x="602.48" y="430.979" style="fill:#23377A;" width="29.796" height="1.917"/>
				</g>
			</g>
			<path style="fill-rule:evenodd;clip-rule:evenodd;fill:#23377A;" d="M592.378,202.503c-0.586,0-1.065,0.479-1.065,1.065v0.005
				c0.057-0.008,0.11-0.02,0.171-0.02c0.418,0,0.757,0.192,0.757,0.429c0,0.237-0.339,0.429-0.757,0.429
				c-0.061,0-0.115-0.012-0.171-0.02v1.227c0,0.586,0.479,1.065,1.065,1.065c0.586,0,1.065-0.479,1.065-1.065v-2.049
				C593.444,202.982,592.964,202.503,592.378,202.503z"/>
			<path style="fill-rule:evenodd;clip-rule:evenodd;fill:#23377A;" d="M603.521,202.503c-0.586,0-1.065,0.479-1.065,1.065v0.005
				c0.057-0.008,0.11-0.02,0.171-0.02c0.418,0,0.757,0.192,0.757,0.429c0,0.237-0.339,0.429-0.757,0.429
				c-0.061,0-0.115-0.012-0.171-0.02v1.227c0,0.586,0.479,1.065,1.065,1.065c0.586,0,1.065-0.479,1.065-1.065v-2.049
				C604.586,202.982,604.106,202.503,603.521,202.503z"/>
			<path style="fill:#23377A;" d="M591.313,192.786c0,0,1.317,4.853,9.516,5.611c8.199,0.758,11.837,6.141,11.837,6.141v-11.162
				c0,0-9.45-5.684-11.345-5.495c-1.895,0.189-7.484-0.758-8.621,1.326S591.313,192.786,591.313,192.786z"/>
		</g>
		<path style="fill:#F5B8A5;" d="M539.267,231.221c0,0-7.733-6.37-7.781-7.507c-0.047-1.137,3.89,0.947,3.89,0.947
			s-3.606-5.021-2.753-6.632c0.853-1.611,4.879,4.832,4.879,4.832s-2.7-6.821-1.753-7.768s4.358,6.489,4.358,6.489
			s-1.99-6.04-0.711-6.573c1.279-0.532,4.026,7.804,4.026,7.804s0.758-3.079,2.179-3.079c1.421,0,0,8.261,0,8.261L539.267,231.221z"
			/>
	</g>
	<g>
		<g>
			<path style="fill:#3557B5;" d="M112.877,190.859H276.53c2.24,0,4.056,1.816,4.056,4.056v102.051c0,2.239-1.815,4.053-4.053,4.053
				H112.875c-2.239,0-4.053-1.815-4.053-4.053V194.913C108.822,192.674,110.637,190.859,112.877,190.859z"/>
			<path style="fill:#FFFFFF;" d="M115.131,296.448h159.142c1.109,0,2.009-0.899,2.009-2.009v-88.938
				c0-1.109-0.899-2.009-2.009-2.009H115.131c-1.109,0-2.009,0.899-2.009,2.009v88.938
				C113.122,295.549,114.022,296.448,115.131,296.448z"/>
			<g>
				<circle style="fill:#FFFFFF;" cx="128.319" cy="197.639" r="1.708"/>
				<circle style="fill:#FFFFFF;" cx="121.575" cy="197.639" r="1.708"/>
				<circle style="fill:#FFFFFF;" cx="114.831" cy="197.639" r="1.708"/>
			</g>
			<g>
				<rect x="127.219" y="276.398" style="fill:#B3C6F2;" width="5.431" height="9.979"/>
				<rect x="135.272" y="271.471" style="fill:#B3C6F2;" width="5.431" height="14.905"/>
				<rect x="143.325" y="262.882" style="fill:#B3C6F2;" width="5.431" height="23.495"/>
				<rect x="151.377" y="267.808" style="fill:#B3C6F2;" width="5.431" height="18.568"/>
				<rect x="159.43" y="257.45" style="fill:#B3C6F2;" width="5.431" height="28.926"/>
			</g>
			<g>
				<circle style="fill:#3557B5;" cx="140.703" cy="230.057" r="16.106"/>
				<g>
					<circle style="fill:#FFFFFF;" cx="140.703" cy="230.057" r="14.163"/>
					
						<text transform="matrix(1 0 0 1 134.1331 234.9681)" style="fill:#3557B5; font-family:'FontAwesome5FreeSolid'; font-size:14.8622px;">user</text>
				</g>
			</g>
			<g>
				<rect x="162.714" y="223.061" style="fill:#3557B5;" width="45.979" height="2.653"/>
				<rect x="162.714" y="228.84" style="fill:#3557B5;" width="45.979" height="2.653"/>
				<rect x="162.714" y="234.619" style="fill:#3557B5;" width="22.989" height="2.653"/>
			</g>
			<g>
				<rect x="218.166" y="223.061" style="fill:#3557B5;" width="45.979" height="2.653"/>
				<rect x="218.166" y="228.84" style="fill:#3557B5;" width="45.979" height="2.653"/>
				<rect x="218.166" y="234.619" style="fill:#3557B5;" width="45.979" height="2.653"/>
			</g>
			<path style="fill:none;stroke:#D4484C;stroke-miterlimit:10;" d="M254.451,286.377"/>
			<g>
				<polygon style="fill:#B3C6F2;" points="257.206,260.703 242.806,275.103 237.09,269.387 224.111,282.366 214.89,273.145 
					210.943,277.093 203.048,269.198 185.869,286.377 257.396,286.377 257.396,260.514 				"/>
				<polyline style="fill:none;stroke:#3557B5;stroke-miterlimit:10;" points="185.869,286.377 203.048,269.198 210.943,277.093 
					214.89,273.145 224.111,282.366 237.09,269.387 242.806,275.103 257.206,260.703 257.396,260.514 				"/>
				<polygon style="fill:#3557B5;" points="254.696,262.955 252.016,260.276 255.677,259.295 259.337,258.314 258.356,261.974 
					257.376,265.635 				"/>
			</g>
			<polyline style="fill:none;stroke:#B7E2F7;stroke-miterlimit:10;" points="181.787,257.45 181.787,286.377 264.145,286.377 			
				"/>
		</g>
		<g>
			<rect x="443.468" y="136.683" style="fill:#FFFFFF;" width="56.723" height="69.242"/>
			<g>
				<g>
					<g>
						<rect x="451.909" y="128.355" style="fill:#3557B5;" width="39.794" height="12.418"/>
						<rect x="454.382" y="130.485" style="fill:#FFFFFF;" width="34.848" height="8.157"/>
						<g>
							<path style="fill:#3557B5;" d="M479.812,130.355H463.8v-9.184h16.012V130.355z"/>
						</g>
						<g>
							<polygon style="fill:#3557B5;" points="505.134,211.074 438.478,211.074 438.478,131.94 453.555,131.94 453.555,136.683 
								443.468,136.683 443.468,205.925 500.191,205.925 500.191,136.683 490.056,136.683 490.056,131.94 505.134,131.94 							"/>
						</g>
						<g>
							<g>
								<g>
									<polygon style="fill:#00A79D;" points="455.527,175.664 450.712,170.849 453.041,168.521 455.527,171.006 459.838,166.696 
										462.166,169.024 									"/>
								</g>
							</g>
						</g>
						<g>
							<g>
								<rect x="464.782" y="168.951" style="fill:#00A79D;" width="28.924" height="3.293"/>
							</g>
						</g>
						<g>
							<g>
								<rect x="464.782" y="151.443" style="fill:#D4484C;" width="28.924" height="3.016"/>
							</g>
						</g>
						<g>
							<g>
								<rect x="464.782" y="156.286" style="fill:#D4484C;" width="14.462" height="3.016"/>
							</g>
						</g>
						<g>
							<g>
								<g>
									<polygon style="fill:#00A79D;" points="455.527,185.853 450.712,181.038 453.041,178.71 455.527,181.195 459.838,176.884 
										462.166,179.213 									"/>
								</g>
							</g>
						</g>
						<g>
							<g>
								<g>
									<rect x="464.782" y="179.14" style="fill:#00A79D;" width="28.924" height="3.293"/>
								</g>
							</g>
						</g>
						<g>
							<g>
								<g>
									<polygon style="fill:#00A79D;" points="455.527,196.041 450.712,191.227 453.041,188.898 455.527,191.384 459.838,187.073 
										462.166,189.402 									"/>
								</g>
							</g>
						</g>
						<g>
							<g>
								<rect x="464.782" y="189.329" style="fill:#00A79D;" width="28.924" height="3.293"/>
							</g>
						</g>
					</g>
				</g>
			</g>
			<g>
				
					<text transform="matrix(1 0 0 1 451.225 158.8394)" style="fill:#D4484C; font-family:'FontAwesome5FreeSolid'; font-size:10.256px;">user</text>
			</g>
		</g>
		<g>
			<path style="fill:#3557B5;" d="M219.203,53.617h93.338c2.24,0,4.056,1.816,4.056,4.056v119.884c0,2.239-1.815,4.053-4.053,4.053
				h-93.342c-2.239,0-4.053-1.815-4.053-4.053V57.672C215.148,55.432,216.964,53.617,219.203,53.617z"/>
			<path style="fill:#FFFFFF;" d="M221.458,177.04h88.826c1.109,0,2.009-0.899,2.009-2.009V68.26c0-1.109-0.899-2.009-2.009-2.009
				h-88.826c-1.109,0-2.009,0.899-2.009,2.009v106.771C219.449,176.141,220.348,177.04,221.458,177.04z"/>
			<g>
				<circle style="fill:#FFFFFF;" cx="234.645" cy="60.397" r="1.708"/>
				<circle style="fill:#FFFFFF;" cx="227.901" cy="60.397" r="1.708"/>
				<circle style="fill:#FFFFFF;" cx="221.157" cy="60.397" r="1.708"/>
			</g>
			<g>
				<g>
					<circle style="fill:#D4484C;" cx="240.777" cy="87.146" r="12.11"/>
					<g>
						
							<text transform="matrix(1 0 0 1 234.2069 92.0567)" style="fill:#FFFFFF; font-family:'FontAwesome5FreeSolid'; font-size:14.8622px;">user</text>
					</g>
				</g>
				<g>
					<rect x="257.545" y="80.15" style="fill:#D4484C;" width="45.979" height="2.653"/>
					<rect x="257.545" y="85.929" style="fill:#D4484C;" width="45.979" height="2.653"/>
					<rect x="257.545" y="91.707" style="fill:#D4484C;" width="22.989" height="2.653"/>
				</g>
			</g>
			<g>
				<g>
					<circle style="fill:#F4A945;" cx="240.777" cy="120.112" r="12.11"/>
					<g>
						
							<text transform="matrix(1 0 0 1 234.2069 125.0229)" style="fill:#FFFFFF; font-family:'FontAwesome5FreeSolid'; font-size:14.8622px;">user</text>
					</g>
				</g>
				<g>
					<rect x="257.545" y="113.116" style="fill:#F4A945;" width="45.979" height="2.653"/>
					<rect x="257.545" y="118.895" style="fill:#F4A945;" width="45.979" height="2.653"/>
					<rect x="257.545" y="124.674" style="fill:#F4A945;" width="22.989" height="2.653"/>
				</g>
			</g>
			<g>
				<g>
					<circle style="fill:#00A79D;" cx="240.777" cy="153.078" r="12.11"/>
					<g>
						
							<text transform="matrix(1 0 0 1 234.2069 157.9892)" style="fill:#FFFFFF; font-family:'FontAwesome5FreeSolid'; font-size:14.8622px;">user</text>
					</g>
				</g>
				<g>
					<rect x="257.545" y="146.082" style="fill:#00A79D;" width="45.979" height="2.653"/>
					<rect x="257.545" y="151.861" style="fill:#00A79D;" width="45.979" height="2.653"/>
					<rect x="257.545" y="157.64" style="fill:#00A79D;" width="22.989" height="2.653"/>
				</g>
			</g>
		</g>
		<g>
			<path style="fill:#B3C6F2;" d="M240.246,361.647h86.425c0.602,0,1.091-0.488,1.091-1.091v-48.934
				c0-0.602-0.488-1.091-1.091-1.091h-86.425c-0.602,0-1.091,0.488-1.091,1.091v48.934
				C239.155,361.159,239.643,361.647,240.246,361.647z"/>
			<circle style="fill:#92ACE0;" cx="283.923" cy="336.089" r="13.566"/>
			<g>
				<path style="fill:#FFFFFF;" d="M280.404,336.089v-4.462c0-0.399,0.432-0.649,0.778-0.449l3.864,2.231l3.864,2.231
					c0.346,0.2,0.346,0.699,0,0.899l-3.864,2.231l-3.864,2.231c-0.346,0.2-0.778-0.05-0.778-0.449V336.089z"/>
			</g>
		</g>
	</g>
</g>
</svg>
